<svg width="25" height="24" viewBox="0 0 25 24" fill="none" xmlns="http://www.w3.org/2000/svg">
<path d="M22.5 8.5C22.5 12.09 19.59 15 16 15C15.83 15 15.65 14.99 15.48 14.98C15.23 11.81 12.69 9.26999 9.51999 9.01999C9.50999 8.84999 9.5 8.67 9.5 8.5C9.5 4.91 12.41 2 16 2C19.59 2 22.5 4.91 22.5 8.5Z" stroke="#467AFF" stroke-width="1.53071" stroke-linecap="round" stroke-linejoin="round"/>
<path d="M15.5 15.5C15.5 19.09 12.59 22 9 22C5.41 22 2.5 19.09 2.5 15.5C2.5 11.91 5.41 9 9 9C9.17 9 9.34999 9.00999 9.51999 9.01999C12.69 9.26999 15.23 11.81 15.48 14.98C15.49 15.15 15.5 15.33 15.5 15.5Z" stroke="#467AFF" stroke-width="1.53071" stroke-linecap="round" stroke-linejoin="round"/>
<path d="M8.12 14.62L9 13L9.88001 14.62L11.5 15.5L9.88001 16.38L9 18L8.12 16.38L6.5 15.5L8.12 14.62Z" stroke="#467AFF" stroke-width="1.04963" stroke-linecap="round" stroke-linejoin="round"/>
</svg>
