<svg width="216" height="49" viewBox="0 0 216 49" fill="none" xmlns="http://www.w3.org/2000/svg">
<path d="M44.4121 18.841H62.8576V9.42578H44.4121V18.841Z" fill="#8E8D8D"/>
<path d="M7.55273 9.42578V18.841H16.759V37.6715H25.9653V18.841H35.2045V9.42578H7.55273Z" fill="#8E8D8D"/>
<path d="M35.2031 37.6703H62.8549V28.2551H44.4094V18.8398H35.2031V37.6703Z" fill="#8E8D8D"/>
<path d="M86.3648 16.5352H72.8184V20.4527H77.3557V32.732H81.8274V20.4527H86.3648V16.5352Z" fill="#8E8D8D"/>
<path d="M91.461 20.3242C88.2716 20.3242 85.9043 22.464 85.9043 26.6779C85.9043 30.3979 87.91 32.9986 91.5596 32.9986C93.4666 32.9986 95.012 32.5048 96.4915 31.6159L94.9133 28.9494C93.6968 29.5749 92.8419 29.8053 91.7569 29.8053C90.639 29.8053 89.8498 29.2127 89.6855 27.863H96.8203C96.8532 27.6655 96.8532 27.4021 96.8532 27.04C96.8861 22.5299 94.8147 20.3242 91.461 20.3242ZM89.7512 25.2623C89.8827 24.0442 90.4088 23.4187 91.3623 23.4187C92.5789 23.4187 93.0063 24.0442 93.2036 25.2623H89.7512Z" fill="#8E8D8D"/>
<path d="M104.777 29.6078C103.659 29.6078 103.067 28.6202 103.067 26.6779C103.067 24.7685 103.593 23.6821 104.678 23.6821C105.566 23.6821 105.96 24.1759 106.552 25.2623L109.413 23.0895C108.361 21.3777 107.045 20.3242 104.744 20.3242C100.864 20.3242 98.957 22.892 98.957 26.612C98.957 30.6942 101.094 32.9657 104.645 32.9657C106.782 32.9657 108.098 32.1427 109.511 30.0687L106.881 27.9947C106.092 29.1798 105.566 29.6078 104.777 29.6078Z" fill="#8E8D8D"/>
<path d="M119.112 20.3232C117.666 20.3232 116.811 20.817 116.055 21.3766V15.8789L111.879 17.5579V32.7671H116.055V25.8209C116.055 24.3065 116.581 23.8786 117.468 23.8786C118.323 23.8786 118.849 24.3065 118.849 25.8538V32.7671H123.025V25.3271C123.025 22.1338 121.743 20.3232 119.112 20.3232Z" fill="#8E8D8D"/>
<path d="M133.054 29.0795C131.114 29.0795 130.325 27.1043 130.325 24.6352C130.325 22.0674 131.147 20.191 133.021 20.191C134.501 20.191 135.059 21.1457 135.618 22.66L139.696 21.0469C138.578 17.9853 136.999 16.2734 133.021 16.2734C128.681 16.2734 125.623 19.4338 125.623 24.6352C125.623 29.4416 128.188 32.997 132.988 32.997C136.835 32.997 138.643 30.923 139.728 28.8161L135.947 26.808C135.059 28.3223 134.468 29.0795 133.054 29.0795Z" fill="#8E8D8D"/>
<path d="M146.437 21.4764V20.5876H142.262V32.7352H146.437V26.1182C146.437 24.6368 147.062 24.143 148.081 24.143C148.903 24.143 149.495 24.571 150.021 25.1635L151.008 20.8509C150.514 20.5547 149.923 20.3242 149.035 20.3242C147.95 20.3242 147.128 20.7851 146.437 21.4764Z" fill="#8E8D8D"/>
<path d="M159.918 27.5322C159.918 29.0465 159.392 29.4745 158.537 29.4745C157.682 29.4745 157.156 29.0465 157.156 27.4992V20.5859H152.98V28.026C152.98 31.2192 154.263 32.997 156.926 32.997C158.34 32.997 159.228 32.5031 159.951 31.9435V32.7665H164.127V20.6189H159.951V27.5322" fill="#8E8D8D"/>
<path d="M174.351 20.3242C172.904 20.3242 172.049 20.818 171.293 21.3777V20.5547H167.117V32.7023H171.293V25.7561C171.293 24.2418 171.819 23.8138 172.707 23.8138C173.562 23.8138 174.088 24.2418 174.088 25.789V32.7023H178.263V25.2623C178.263 22.1348 177.014 20.3242 174.351 20.3242Z" fill="#8E8D8D"/>
<path d="M186.55 29.6078C185.432 29.6078 184.84 28.6202 184.84 26.6779C184.84 24.7685 185.366 23.6821 186.418 23.6821C187.306 23.6821 187.701 24.1759 188.292 25.2623L191.153 23.0895C190.101 21.3777 188.786 20.3242 186.484 20.3242C182.604 20.3242 180.697 22.892 180.697 26.612C180.697 30.6942 182.834 32.9657 186.385 32.9657C188.523 32.9657 189.838 32.1427 191.252 30.0687L188.621 27.9947C187.898 29.1798 187.339 29.6078 186.55 29.6078Z" fill="#8E8D8D"/>
<path d="M200.886 20.3232C199.439 20.3232 198.584 20.817 197.828 21.3766V15.8789L193.652 17.5579V32.7671H197.828V25.8209C197.828 24.3065 198.354 23.8786 199.242 23.8786C200.097 23.8786 200.623 24.3065 200.623 25.8538V32.7671H204.799V25.3271C204.831 22.1338 203.549 20.3232 200.886 20.3232Z" fill="#8E8D8D"/>
</svg>
