<svg width="171" height="42" viewBox="0 0 171 42" fill="none" xmlns="http://www.w3.org/2000/svg">
<path d="M28.3721 31.6873H43.4458V27.693H32.9256V22.8053H41.6401V18.811H32.9256V14.2911H43.4981V10.2969H28.3721V31.6873ZM61.5812 23.7513L51.7153 10.2969H44.9113L47.031 13.0035V31.7398H51.5845V17.7073L61.7906 31.6873H66.1347V10.2969H61.5812V23.7513ZM21.4896 20.6767C23.4785 20.2826 25.1533 18.4168 25.1533 15.789C25.1271 12.951 23.0859 10.2969 18.9773 10.2969H5.76172L7.80294 12.9247V31.6873H19.4222C23.5308 31.6873 25.6505 29.112 25.6505 25.8798C25.5982 23.252 23.7925 20.9921 21.4896 20.6767ZM12.3826 14.3174H18.0875C19.6315 14.3174 20.5998 15.2109 20.5998 16.5773C20.5998 17.9175 19.6315 18.8373 18.0875 18.8373H12.3826V14.3174ZM18.2969 27.7193H12.4088V22.8053H18.2969C20.0241 22.8053 20.9924 23.9089 20.9924 25.2491C20.9924 26.7995 19.9717 27.693 18.2969 27.7193ZM132.788 23.7513H135.17V26.274C133.94 27.2988 132.396 27.8507 130.799 27.8769C127.005 27.8769 124.309 24.9863 124.309 21.0446C124.309 17.1292 127.005 14.2123 130.799 14.2123C132.788 14.2386 134.62 15.2372 135.667 16.919L139.252 14.9218C137.708 12.478 135.013 10.2969 130.721 10.2969C124.702 10.2969 119.677 14.4751 119.677 20.9921C119.677 27.509 124.623 31.6873 130.721 31.6873C134.044 31.7398 137.237 30.3208 139.435 27.8244V19.9147H129.727L132.788 23.7513ZM112.271 23.7513L102.379 10.2969H95.5754L97.6951 13.0035V31.7398H102.249V17.7073L112.455 31.6873H116.825V10.2969H112.271V23.7513ZM154.535 10.2969H145.742L147.862 13.0035L147.469 14.0284L140.665 31.7398H145.795L147.129 28.1397H156.315L157.649 31.7398H162.779L154.535 10.2969ZM148.333 24.0929L151.657 14.8693L154.98 24.0929H148.333ZM88.4049 10.2969H92.9584V31.7398H88.4049V10.2969ZM84.7412 13.9758V10.2969H68.6993V14.2911H78.7746L68.6993 28.0083V31.6873H84.9244V27.693H74.5874L84.7412 13.9758Z" fill="#8E8D8D"/>
</svg>
