<svg width="328" height="289" viewBox="0 0 328 289" fill="none" xmlns="http://www.w3.org/2000/svg">
<path d="M19.1814 261.356V3.4082" stroke="url(#paint0_linear_242_581)" stroke-width="0.514679" stroke-linecap="round"/>
<path d="M107.816 261.356V3.4082" stroke="url(#paint1_linear_242_581)" stroke-width="0.514679" stroke-linecap="round"/>
<path d="M196.45 261.356V3.4082" stroke="url(#paint2_linear_242_581)" stroke-width="0.514679" stroke-linecap="round"/>
<path d="M283.948 261.356V3.4082" stroke="url(#paint3_linear_242_581)" stroke-width="0.514679" stroke-linecap="round"/>
<path d="M283.947 259.706V46.4803C283.947 45.8691 283.034 45.8078 282.884 46.4004C242.36 206.389 69.5711 250.992 1 260.22H283.433C283.717 260.22 283.947 259.99 283.947 259.706Z" fill="url(#paint4_linear_242_581)" fill-opacity="0.7" stroke="#EAEAEA" stroke-width="0.514679"/>
<path d="M283.947 43.1807C268.254 113.709 204.156 227.38 2.13629 260.221" stroke="url(#paint5_linear_242_581)" stroke-width="1.02936" stroke-linecap="round"/>
<circle cx="284.225" cy="40.6909" r="7.72018" fill="#467AFF" fill-opacity="0.2"/>
<g filter="url(#filter0_d_242_581)">
<circle cx="284.225" cy="40.6917" r="3.00229" fill="white"/>
<circle cx="284.225" cy="40.6917" r="2.35894" stroke="#467AFF" stroke-width="1.2867"/>
</g>
<path d="M303.281 8.46C302.794 8.90667 302.164 9.13 301.391 9.13C300.617 9.13 299.984 8.90667 299.491 8.46C299.004 8.00667 298.761 7.40333 298.761 6.65V2H299.691V6.61C299.691 7.10333 299.837 7.49667 300.131 7.79C300.424 8.07667 300.844 8.22 301.391 8.22C301.937 8.22 302.357 8.07667 302.651 7.79C302.944 7.49667 303.091 7.10333 303.091 6.61V2H304.011V6.65C304.011 7.40333 303.767 8.00667 303.281 8.46ZM307.693 9.13C307.04 9.13 306.48 8.97667 306.013 8.67C305.553 8.36333 305.23 7.94333 305.043 7.41L305.843 6.95C306.116 7.79667 306.74 8.22 307.713 8.22C308.193 8.22 308.56 8.12333 308.813 7.93C309.066 7.73 309.193 7.46667 309.193 7.14C309.193 6.80667 309.066 6.55667 308.813 6.39C308.56 6.22333 308.136 6.04667 307.543 5.86C307.25 5.76667 307.026 5.69333 306.873 5.64C306.72 5.58 306.526 5.49333 306.293 5.38C306.066 5.26 305.896 5.14 305.783 5.02C305.67 4.89333 305.566 4.73 305.473 4.53C305.386 4.33 305.343 4.10333 305.343 3.85C305.343 3.24333 305.556 2.76333 305.983 2.41C306.41 2.05 306.93 1.87 307.543 1.87C308.096 1.87 308.576 2.01 308.983 2.29C309.396 2.57 309.706 2.94 309.913 3.4L309.133 3.85C308.833 3.13 308.303 2.77 307.543 2.77C307.163 2.77 306.856 2.86333 306.623 3.05C306.39 3.23667 306.273 3.49 306.273 3.81C306.273 4.11667 306.383 4.35 306.603 4.51C306.823 4.67 307.203 4.83667 307.743 5.01C307.936 5.07 308.073 5.11333 308.153 5.14C308.233 5.16667 308.356 5.21333 308.523 5.28C308.696 5.34667 308.823 5.4 308.903 5.44C308.983 5.48 309.09 5.53667 309.223 5.61C309.363 5.68333 309.466 5.75333 309.533 5.82C309.6 5.88667 309.676 5.97 309.763 6.07C309.856 6.16333 309.923 6.26 309.963 6.36C310.003 6.46 310.036 6.57667 310.063 6.71C310.096 6.83667 310.113 6.97333 310.113 7.12C310.113 7.73333 309.89 8.22333 309.443 8.59C308.996 8.95 308.413 9.13 307.693 9.13ZM313.895 2C314.849 2 315.639 2.34 316.265 3.02C316.899 3.69333 317.215 4.52 317.215 5.5C317.215 6.48 316.899 7.31 316.265 7.99C315.639 8.66333 314.849 9 313.895 9H311.165V2H313.895ZM313.895 8.12C314.609 8.12 315.192 7.87 315.645 7.37C316.099 6.87 316.325 6.24667 316.325 5.5C316.325 4.75333 316.099 4.13 315.645 3.63C315.192 3.13 314.609 2.88 313.895 2.88H312.095V8.12H313.895ZM303.691 20.8V21.67H302.841V23H301.911V21.67H298.341V20.8L300.851 16H301.851L299.341 20.8H301.911V18.82H302.841V20.8H303.691ZM309.042 22.14C308.568 22.8 307.905 23.13 307.052 23.13C306.198 23.13 305.535 22.8 305.062 22.14C304.588 21.48 304.352 20.6 304.352 19.5C304.352 18.4 304.588 17.52 305.062 16.86C305.535 16.2 306.198 15.87 307.052 15.87C307.905 15.87 308.568 16.2 309.042 16.86C309.515 17.52 309.752 18.4 309.752 19.5C309.752 20.6 309.515 21.48 309.042 22.14ZM305.742 21.51C306.048 21.9833 306.485 22.22 307.052 22.22C307.618 22.22 308.055 21.9833 308.362 21.51C308.675 21.0367 308.832 20.3667 308.832 19.5C308.832 18.6333 308.675 17.9633 308.362 17.49C308.055 17.01 307.618 16.77 307.052 16.77C306.485 16.77 306.048 17.0067 305.742 17.48C305.435 17.9533 305.282 18.6267 305.282 19.5C305.282 20.3667 305.435 21.0367 305.742 21.51ZM315.34 22.14C314.867 22.8 314.204 23.13 313.35 23.13C312.497 23.13 311.834 22.8 311.36 22.14C310.887 21.48 310.65 20.6 310.65 19.5C310.65 18.4 310.887 17.52 311.36 16.86C311.834 16.2 312.497 15.87 313.35 15.87C314.204 15.87 314.867 16.2 315.34 16.86C315.814 17.52 316.05 18.4 316.05 19.5C316.05 20.6 315.814 21.48 315.34 22.14ZM312.04 21.51C312.347 21.9833 312.784 22.22 313.35 22.22C313.917 22.22 314.354 21.9833 314.66 21.51C314.974 21.0367 315.13 20.3667 315.13 19.5C315.13 18.6333 314.974 17.9633 314.66 17.49C314.354 17.01 313.917 16.77 313.35 16.77C312.784 16.77 312.347 17.0067 312.04 17.48C311.734 17.9533 311.58 18.6267 311.58 19.5C311.58 20.3667 311.734 21.0367 312.04 21.51ZM322.339 23H321.199L318.179 19.64V23H317.249V16H318.179V19.16L321.099 16H322.239L319.149 19.4L322.339 23Z" fill="#979797"/>
<path d="M303.281 180.879C302.794 181.326 302.164 181.549 301.391 181.549C300.617 181.549 299.984 181.326 299.491 180.879C299.004 180.426 298.761 179.822 298.761 179.069V174.419H299.691V179.029C299.691 179.522 299.837 179.916 300.131 180.209C300.424 180.496 300.844 180.639 301.391 180.639C301.937 180.639 302.357 180.496 302.651 180.209C302.944 179.916 303.091 179.522 303.091 179.029V174.419H304.011V179.069C304.011 179.822 303.767 180.426 303.281 180.879ZM307.693 181.549C307.04 181.549 306.48 181.396 306.013 181.089C305.553 180.782 305.23 180.362 305.043 179.829L305.843 179.369C306.116 180.216 306.74 180.639 307.713 180.639C308.193 180.639 308.56 180.542 308.813 180.349C309.066 180.149 309.193 179.886 309.193 179.559C309.193 179.226 309.066 178.976 308.813 178.809C308.56 178.642 308.136 178.466 307.543 178.279C307.25 178.186 307.026 178.112 306.873 178.059C306.72 177.999 306.526 177.912 306.293 177.799C306.066 177.679 305.896 177.559 305.783 177.439C305.67 177.312 305.566 177.149 305.473 176.949C305.386 176.749 305.343 176.522 305.343 176.269C305.343 175.662 305.556 175.182 305.983 174.829C306.41 174.469 306.93 174.289 307.543 174.289C308.096 174.289 308.576 174.429 308.983 174.709C309.396 174.989 309.706 175.359 309.913 175.819L309.133 176.269C308.833 175.549 308.303 175.189 307.543 175.189C307.163 175.189 306.856 175.282 306.623 175.469C306.39 175.656 306.273 175.909 306.273 176.229C306.273 176.536 306.383 176.769 306.603 176.929C306.823 177.089 307.203 177.256 307.743 177.429C307.936 177.489 308.073 177.532 308.153 177.559C308.233 177.586 308.356 177.632 308.523 177.699C308.696 177.766 308.823 177.819 308.903 177.859C308.983 177.899 309.09 177.956 309.223 178.029C309.363 178.102 309.466 178.172 309.533 178.239C309.6 178.306 309.676 178.389 309.763 178.489C309.856 178.582 309.923 178.679 309.963 178.779C310.003 178.879 310.036 178.996 310.063 179.129C310.096 179.256 310.113 179.392 310.113 179.539C310.113 180.152 309.89 180.642 309.443 181.009C308.996 181.369 308.413 181.549 307.693 181.549ZM313.895 174.419C314.849 174.419 315.639 174.759 316.265 175.439C316.899 176.112 317.215 176.939 317.215 177.919C317.215 178.899 316.899 179.729 316.265 180.409C315.639 181.082 314.849 181.419 313.895 181.419H311.165V174.419H313.895ZM313.895 180.539C314.609 180.539 315.192 180.289 315.645 179.789C316.099 179.289 316.325 178.666 316.325 177.919C316.325 177.172 316.099 176.549 315.645 176.049C315.192 175.549 314.609 175.299 313.895 175.299H312.095V180.539H313.895ZM300.081 188.419H300.881V195.419H299.961V189.419L298.471 189.859L298.241 189.059L300.081 188.419ZM306.805 194.559C306.332 195.219 305.669 195.549 304.815 195.549C303.962 195.549 303.299 195.219 302.825 194.559C302.352 193.899 302.115 193.019 302.115 191.919C302.115 190.819 302.352 189.939 302.825 189.279C303.299 188.619 303.962 188.289 304.815 188.289C305.669 188.289 306.332 188.619 306.805 189.279C307.279 189.939 307.515 190.819 307.515 191.919C307.515 193.019 307.279 193.899 306.805 194.559ZM303.505 193.929C303.812 194.402 304.249 194.639 304.815 194.639C305.382 194.639 305.819 194.402 306.125 193.929C306.439 193.456 306.595 192.786 306.595 191.919C306.595 191.052 306.439 190.382 306.125 189.909C305.819 189.429 305.382 189.189 304.815 189.189C304.249 189.189 303.812 189.426 303.505 189.899C303.199 190.372 303.045 191.046 303.045 191.919C303.045 192.786 303.199 193.456 303.505 193.929ZM313.104 194.559C312.631 195.219 311.967 195.549 311.114 195.549C310.261 195.549 309.597 195.219 309.124 194.559C308.651 193.899 308.414 193.019 308.414 191.919C308.414 190.819 308.651 189.939 309.124 189.279C309.597 188.619 310.261 188.289 311.114 188.289C311.967 188.289 312.631 188.619 313.104 189.279C313.577 189.939 313.814 190.819 313.814 191.919C313.814 193.019 313.577 193.899 313.104 194.559ZM309.804 193.929C310.111 194.402 310.547 194.639 311.114 194.639C311.681 194.639 312.117 194.402 312.424 193.929C312.737 193.456 312.894 192.786 312.894 191.919C312.894 191.052 312.737 190.382 312.424 189.909C312.117 189.429 311.681 189.189 311.114 189.189C310.547 189.189 310.111 189.426 309.804 189.899C309.497 190.372 309.344 191.046 309.344 191.919C309.344 192.786 309.497 193.456 309.804 193.929ZM320.103 195.419H318.963L315.943 192.059V195.419H315.013V188.419H315.943V191.579L318.863 188.419H320.003L316.913 191.819L320.103 195.419Z" fill="#979797"/>
<path d="M249.252 276.394H250.052V283.394H249.132V277.394L247.642 277.834L247.412 277.034L249.252 276.394ZM251.197 283.394V282.634L253.667 280.114C254.327 279.454 254.657 278.887 254.657 278.414C254.657 278.02 254.537 277.714 254.297 277.494C254.057 277.274 253.763 277.164 253.417 277.164C252.757 277.164 252.277 277.477 251.977 278.104L251.197 277.644C251.417 277.19 251.72 276.847 252.107 276.614C252.5 276.38 252.933 276.264 253.407 276.264C253.993 276.264 254.503 276.457 254.937 276.844C255.37 277.23 255.587 277.75 255.587 278.404C255.587 279.11 255.17 279.88 254.337 280.714L252.547 282.494H255.717V283.394H251.197ZM264.57 276.394L262.09 280.564V283.394H261.16V280.554L258.69 276.394H259.73L261.63 279.674L263.53 276.394H264.57ZM264.919 281.294C265.006 281.74 265.209 282.087 265.529 282.334C265.856 282.58 266.256 282.704 266.729 282.704C267.389 282.704 267.869 282.46 268.169 281.974L268.909 282.394C268.423 283.147 267.689 283.524 266.709 283.524C265.916 283.524 265.269 283.277 264.769 282.784C264.276 282.284 264.029 281.654 264.029 280.894C264.029 280.14 264.273 279.514 264.759 279.014C265.246 278.514 265.876 278.264 266.649 278.264C267.383 278.264 267.979 278.524 268.439 279.044C268.906 279.557 269.139 280.177 269.139 280.904C269.139 281.03 269.129 281.16 269.109 281.294H264.919ZM266.649 279.084C266.183 279.084 265.796 279.217 265.489 279.484C265.183 279.744 264.993 280.094 264.919 280.534H268.259C268.186 280.06 267.999 279.7 267.699 279.454C267.399 279.207 267.049 279.084 266.649 279.084ZM274.269 278.394H275.139V283.394H274.269V282.534C273.836 283.194 273.206 283.524 272.379 283.524C271.679 283.524 271.083 283.27 270.589 282.764C270.096 282.25 269.849 281.627 269.849 280.894C269.849 280.16 270.096 279.54 270.589 279.034C271.083 278.52 271.679 278.264 272.379 278.264C273.206 278.264 273.836 278.594 274.269 279.254V278.394ZM272.489 282.684C272.996 282.684 273.419 282.514 273.759 282.174C274.099 281.827 274.269 281.4 274.269 280.894C274.269 280.387 274.099 279.964 273.759 279.624C273.419 279.277 272.996 279.104 272.489 279.104C271.989 279.104 271.569 279.277 271.229 279.624C270.889 279.964 270.719 280.387 270.719 280.894C270.719 281.4 270.889 281.827 271.229 282.174C271.569 282.514 271.989 282.684 272.489 282.684ZM277.328 279.234C277.614 278.614 278.134 278.304 278.888 278.304V279.214C278.461 279.194 278.094 279.307 277.788 279.554C277.481 279.8 277.328 280.197 277.328 280.744V283.394H276.458V278.394H277.328V279.234ZM280.303 279.744C280.303 279.937 280.4 280.094 280.593 280.214C280.787 280.327 281.02 280.42 281.293 280.494C281.567 280.56 281.84 280.64 282.113 280.734C282.387 280.82 282.62 280.974 282.813 281.194C283.007 281.407 283.103 281.684 283.103 282.024C283.103 282.477 282.927 282.84 282.573 283.114C282.227 283.387 281.78 283.524 281.233 283.524C280.747 283.524 280.33 283.417 279.983 283.204C279.637 282.99 279.39 282.707 279.243 282.354L279.993 281.924C280.073 282.164 280.223 282.354 280.443 282.494C280.663 282.634 280.927 282.704 281.233 282.704C281.52 282.704 281.757 282.65 281.943 282.544C282.13 282.43 282.223 282.257 282.223 282.024C282.223 281.83 282.127 281.677 281.933 281.564C281.74 281.444 281.507 281.35 281.233 281.284C280.96 281.21 280.687 281.127 280.413 281.034C280.14 280.94 279.907 280.787 279.713 280.574C279.52 280.36 279.423 280.087 279.423 279.754C279.423 279.32 279.59 278.964 279.923 278.684C280.263 278.404 280.687 278.264 281.193 278.264C281.6 278.264 281.96 278.357 282.273 278.544C282.593 278.724 282.833 278.977 282.993 279.304L282.263 279.714C282.083 279.287 281.727 279.074 281.193 279.074C280.947 279.074 280.737 279.134 280.563 279.254C280.39 279.367 280.303 279.53 280.303 279.744Z" fill="#BCBCBC"/>
<path d="M184.601 278.614C184.601 279.154 184.457 279.624 184.171 280.024H184.181L181.921 283.394H180.871L182.531 280.944C182.384 280.957 182.271 280.964 182.191 280.964C181.484 280.964 180.904 280.747 180.451 280.314C180.004 279.874 179.781 279.307 179.781 278.614C179.781 277.92 180.004 277.357 180.451 276.924C180.904 276.484 181.484 276.264 182.191 276.264C182.897 276.264 183.474 276.484 183.921 276.924C184.374 277.357 184.601 277.92 184.601 278.614ZM181.111 277.554C180.837 277.82 180.701 278.174 180.701 278.614C180.701 279.054 180.837 279.41 181.111 279.684C181.391 279.95 181.751 280.084 182.191 280.084C182.631 280.084 182.987 279.95 183.261 279.684C183.541 279.41 183.681 279.054 183.681 278.614C183.681 278.174 183.544 277.82 183.271 277.554C182.997 277.287 182.637 277.154 182.191 277.154C181.751 277.154 181.391 277.287 181.111 277.554ZM193.342 276.394L190.862 280.564V283.394H189.932V280.554L187.462 276.394H188.502L190.402 279.674L192.302 276.394H193.342ZM193.691 281.294C193.777 281.74 193.981 282.087 194.301 282.334C194.627 282.58 195.027 282.704 195.501 282.704C196.161 282.704 196.641 282.46 196.941 281.974L197.681 282.394C197.194 283.147 196.461 283.524 195.481 283.524C194.687 283.524 194.041 283.277 193.541 282.784C193.047 282.284 192.801 281.654 192.801 280.894C192.801 280.14 193.044 279.514 193.531 279.014C194.017 278.514 194.647 278.264 195.421 278.264C196.154 278.264 196.751 278.524 197.211 279.044C197.677 279.557 197.911 280.177 197.911 280.904C197.911 281.03 197.901 281.16 197.881 281.294H193.691ZM195.421 279.084C194.954 279.084 194.567 279.217 194.261 279.484C193.954 279.744 193.764 280.094 193.691 280.534H197.031C196.957 280.06 196.771 279.7 196.471 279.454C196.171 279.207 195.821 279.084 195.421 279.084ZM203.041 278.394H203.911V283.394H203.041V282.534C202.608 283.194 201.978 283.524 201.151 283.524C200.451 283.524 199.854 283.27 199.361 282.764C198.868 282.25 198.621 281.627 198.621 280.894C198.621 280.16 198.868 279.54 199.361 279.034C199.854 278.52 200.451 278.264 201.151 278.264C201.978 278.264 202.608 278.594 203.041 279.254V278.394ZM201.261 282.684C201.768 282.684 202.191 282.514 202.531 282.174C202.871 281.827 203.041 281.4 203.041 280.894C203.041 280.387 202.871 279.964 202.531 279.624C202.191 279.277 201.768 279.104 201.261 279.104C200.761 279.104 200.341 279.277 200.001 279.624C199.661 279.964 199.491 280.387 199.491 280.894C199.491 281.4 199.661 281.827 200.001 282.174C200.341 282.514 200.761 282.684 201.261 282.684ZM206.099 279.234C206.386 278.614 206.906 278.304 207.659 278.304V279.214C207.232 279.194 206.866 279.307 206.559 279.554C206.252 279.8 206.099 280.197 206.099 280.744V283.394H205.229V278.394H206.099V279.234ZM209.075 279.744C209.075 279.937 209.171 280.094 209.365 280.214C209.558 280.327 209.791 280.42 210.065 280.494C210.338 280.56 210.611 280.64 210.885 280.734C211.158 280.82 211.391 280.974 211.585 281.194C211.778 281.407 211.875 281.684 211.875 282.024C211.875 282.477 211.698 282.84 211.345 283.114C210.998 283.387 210.551 283.524 210.005 283.524C209.518 283.524 209.101 283.417 208.755 283.204C208.408 282.99 208.161 282.707 208.015 282.354L208.765 281.924C208.845 282.164 208.995 282.354 209.215 282.494C209.435 282.634 209.698 282.704 210.005 282.704C210.291 282.704 210.528 282.65 210.715 282.544C210.901 282.43 210.995 282.257 210.995 282.024C210.995 281.83 210.898 281.677 210.705 281.564C210.511 281.444 210.278 281.35 210.005 281.284C209.731 281.21 209.458 281.127 209.185 281.034C208.911 280.94 208.678 280.787 208.485 280.574C208.291 280.36 208.195 280.087 208.195 279.754C208.195 279.32 208.361 278.964 208.695 278.684C209.035 278.404 209.458 278.264 209.965 278.264C210.371 278.264 210.731 278.357 211.045 278.544C211.365 278.724 211.605 278.977 211.765 279.304L211.035 279.714C210.855 279.287 210.498 279.074 209.965 279.074C209.718 279.074 209.508 279.134 209.335 279.254C209.161 279.367 209.075 279.53 209.075 279.744Z" fill="#BCBCBC"/>
<path d="M93.4899 278.814C94.1899 278.814 94.7665 279.034 95.2199 279.474C95.6732 279.907 95.8999 280.47 95.8999 281.164C95.8999 281.857 95.6732 282.424 95.2199 282.864C94.7665 283.304 94.1899 283.524 93.4899 283.524C92.7832 283.524 92.2032 283.304 91.7499 282.864C91.3032 282.424 91.0799 281.857 91.0799 281.164C91.0799 280.624 91.2199 280.157 91.4999 279.764L93.7499 276.394H94.8099L93.1599 278.834C93.3065 278.82 93.4165 278.814 93.4899 278.814ZM92.4099 282.234C92.6899 282.5 93.0499 282.634 93.4899 282.634C93.9299 282.634 94.2865 282.5 94.5599 282.234C94.8399 281.96 94.9799 281.604 94.9799 281.164C94.9799 280.724 94.8399 280.37 94.5599 280.104C94.2865 279.837 93.9299 279.704 93.4899 279.704C93.0432 279.704 92.6832 279.837 92.4099 280.104C92.1365 280.37 91.9999 280.724 91.9999 281.164C91.9999 281.604 92.1365 281.96 92.4099 282.234ZM102.831 278.394H103.761L101.721 283.704C101.507 284.27 101.207 284.7 100.821 284.994C100.441 285.294 100.001 285.427 99.5007 285.394V284.584C100.114 284.63 100.564 284.29 100.851 283.564L100.941 283.374L98.7607 278.394H99.6907L101.391 282.314L102.831 278.394ZM104.902 281.294C104.989 281.74 105.192 282.087 105.512 282.334C105.839 282.58 106.239 282.704 106.712 282.704C107.372 282.704 107.852 282.46 108.152 281.974L108.892 282.394C108.405 283.147 107.672 283.524 106.692 283.524C105.899 283.524 105.252 283.277 104.752 282.784C104.259 282.284 104.012 281.654 104.012 280.894C104.012 280.14 104.255 279.514 104.742 279.014C105.229 278.514 105.859 278.264 106.632 278.264C107.365 278.264 107.962 278.524 108.422 279.044C108.889 279.557 109.122 280.177 109.122 280.904C109.122 281.03 109.112 281.16 109.092 281.294H104.902ZM106.632 279.084C106.165 279.084 105.779 279.217 105.472 279.484C105.165 279.744 104.975 280.094 104.902 280.534H108.242C108.169 280.06 107.982 279.7 107.682 279.454C107.382 279.207 107.032 279.084 106.632 279.084ZM114.252 278.394H115.122V283.394H114.252V282.534C113.819 283.194 113.189 283.524 112.362 283.524C111.662 283.524 111.066 283.27 110.572 282.764C110.079 282.25 109.832 281.627 109.832 280.894C109.832 280.16 110.079 279.54 110.572 279.034C111.066 278.52 111.662 278.264 112.362 278.264C113.189 278.264 113.819 278.594 114.252 279.254V278.394ZM112.472 282.684C112.979 282.684 113.402 282.514 113.742 282.174C114.082 281.827 114.252 281.4 114.252 280.894C114.252 280.387 114.082 279.964 113.742 279.624C113.402 279.277 112.979 279.104 112.472 279.104C111.972 279.104 111.552 279.277 111.212 279.624C110.872 279.964 110.702 280.387 110.702 280.894C110.702 281.4 110.872 281.827 111.212 282.174C111.552 282.514 111.972 282.684 112.472 282.684ZM117.31 279.234C117.597 278.614 118.117 278.304 118.87 278.304V279.214C118.444 279.194 118.077 279.307 117.77 279.554C117.464 279.8 117.31 280.197 117.31 280.744V283.394H116.44V278.394H117.31V279.234ZM120.286 279.744C120.286 279.937 120.383 280.094 120.576 280.214C120.769 280.327 121.003 280.42 121.276 280.494C121.549 280.56 121.823 280.64 122.096 280.734C122.369 280.82 122.603 280.974 122.796 281.194C122.989 281.407 123.086 281.684 123.086 282.024C123.086 282.477 122.909 282.84 122.556 283.114C122.209 283.387 121.763 283.524 121.216 283.524C120.729 283.524 120.313 283.417 119.966 283.204C119.619 282.99 119.373 282.707 119.226 282.354L119.976 281.924C120.056 282.164 120.206 282.354 120.426 282.494C120.646 282.634 120.909 282.704 121.216 282.704C121.503 282.704 121.739 282.65 121.926 282.544C122.113 282.43 122.206 282.257 122.206 282.024C122.206 281.83 122.109 281.677 121.916 281.564C121.723 281.444 121.489 281.35 121.216 281.284C120.943 281.21 120.669 281.127 120.396 281.034C120.123 280.94 119.889 280.787 119.696 280.574C119.503 280.36 119.406 280.087 119.406 279.754C119.406 279.32 119.573 278.964 119.906 278.684C120.246 278.404 120.669 278.264 121.176 278.264C121.583 278.264 121.943 278.357 122.256 278.544C122.576 278.724 122.816 278.977 122.976 279.304L122.246 279.714C122.066 279.287 121.709 279.074 121.176 279.074C120.929 279.074 120.719 279.134 120.546 279.254C120.373 279.367 120.286 279.53 120.286 279.744Z" fill="#BCBCBC"/>
<path d="M18.202 282.534C17.7286 283.194 17.0653 283.524 16.212 283.524C15.3586 283.524 14.6953 283.194 14.222 282.534C13.7486 281.874 13.512 280.994 13.512 279.894C13.512 278.794 13.7486 277.914 14.222 277.254C14.6953 276.594 15.3586 276.264 16.212 276.264C17.0653 276.264 17.7286 276.594 18.202 277.254C18.6753 277.914 18.912 278.794 18.912 279.894C18.912 280.994 18.6753 281.874 18.202 282.534ZM14.902 281.904C15.2086 282.377 15.6453 282.614 16.212 282.614C16.7786 282.614 17.2153 282.377 17.522 281.904C17.8353 281.43 17.992 280.76 17.992 279.894C17.992 279.027 17.8353 278.357 17.522 277.884C17.2153 277.404 16.7786 277.164 16.212 277.164C15.6453 277.164 15.2086 277.4 14.902 277.874C14.5953 278.347 14.442 279.02 14.442 279.894C14.442 280.76 14.5953 281.43 14.902 281.904ZM29.1608 276.394V283.394H28.2408V277.924L25.9508 281.734H25.8308L23.5408 277.934V283.394H22.6108V276.394H23.6608L25.8908 280.094L28.1108 276.394H29.1608ZM34.7877 282.764C34.2743 283.27 33.651 283.524 32.9177 283.524C32.1843 283.524 31.561 283.27 31.0477 282.764C30.541 282.257 30.2877 281.634 30.2877 280.894C30.2877 280.154 30.541 279.53 31.0477 279.024C31.561 278.517 32.1843 278.264 32.9177 278.264C33.651 278.264 34.2743 278.517 34.7877 279.024C35.301 279.53 35.5577 280.154 35.5577 280.894C35.5577 281.634 35.301 282.257 34.7877 282.764ZM32.9177 282.674C33.4177 282.674 33.8377 282.504 34.1777 282.164C34.5177 281.824 34.6877 281.4 34.6877 280.894C34.6877 280.387 34.5177 279.964 34.1777 279.624C33.8377 279.284 33.4177 279.114 32.9177 279.114C32.4243 279.114 32.0077 279.284 31.6677 279.624C31.3277 279.964 31.1577 280.387 31.1577 280.894C31.1577 281.4 31.3277 281.824 31.6677 282.164C32.0077 282.504 32.4243 282.674 32.9177 282.674ZM39.0733 278.264C39.6599 278.264 40.1299 278.45 40.4833 278.824C40.8366 279.19 41.0133 279.69 41.0133 280.324V283.394H40.1433V280.374C40.1433 279.967 40.0333 279.654 39.8133 279.434C39.5933 279.207 39.2899 279.094 38.9033 279.094C38.4699 279.094 38.1199 279.23 37.8533 279.504C37.5866 279.77 37.4533 280.184 37.4533 280.744V283.394H36.5833V278.394H37.4533V279.114C37.8066 278.547 38.3466 278.264 39.0733 278.264ZM44.9478 279.234H43.6178V281.944C43.6178 282.19 43.6645 282.367 43.7578 282.474C43.8578 282.574 44.0078 282.627 44.2078 282.634C44.4078 282.634 44.6545 282.627 44.9478 282.614V283.394C44.1878 283.494 43.6311 283.434 43.2778 283.214C42.9245 282.987 42.7478 282.564 42.7478 281.944V279.234H41.7578V278.394H42.7478V277.254L43.6178 276.994V278.394H44.9478V279.234ZM48.4678 278.264C49.0545 278.264 49.5245 278.45 49.8778 278.824C50.2311 279.19 50.4078 279.69 50.4078 280.324V283.394H49.5378V280.374C49.5378 279.967 49.4278 279.654 49.2078 279.434C48.9878 279.207 48.6845 279.094 48.2978 279.094C47.8645 279.094 47.5145 279.23 47.2478 279.504C46.9811 279.77 46.8478 280.184 46.8478 280.744V283.394H45.9778V276.394H46.8478V279.114C47.2011 278.547 47.7411 278.264 48.4678 278.264ZM52.3723 279.744C52.3723 279.937 52.469 280.094 52.6623 280.214C52.8557 280.327 53.089 280.42 53.3623 280.494C53.6357 280.56 53.909 280.64 54.1823 280.734C54.4557 280.82 54.689 280.974 54.8823 281.194C55.0757 281.407 55.1723 281.684 55.1723 282.024C55.1723 282.477 54.9957 282.84 54.6423 283.114C54.2957 283.387 53.849 283.524 53.3023 283.524C52.8157 283.524 52.399 283.417 52.0523 283.204C51.7057 282.99 51.459 282.707 51.3123 282.354L52.0623 281.924C52.1423 282.164 52.2923 282.354 52.5123 282.494C52.7323 282.634 52.9957 282.704 53.3023 282.704C53.589 282.704 53.8257 282.65 54.0123 282.544C54.199 282.43 54.2923 282.257 54.2923 282.024C54.2923 281.83 54.1957 281.677 54.0023 281.564C53.809 281.444 53.5757 281.35 53.3023 281.284C53.029 281.21 52.7557 281.127 52.4823 281.034C52.209 280.94 51.9757 280.787 51.7823 280.574C51.589 280.36 51.4923 280.087 51.4923 279.754C51.4923 279.32 51.659 278.964 51.9923 278.684C52.3323 278.404 52.7557 278.264 53.2623 278.264C53.669 278.264 54.029 278.357 54.3423 278.544C54.6623 278.724 54.9023 278.977 55.0623 279.304L54.3323 279.714C54.1523 279.287 53.7957 279.074 53.2623 279.074C53.0157 279.074 52.8057 279.134 52.6323 279.254C52.459 279.367 52.3723 279.53 52.3723 279.744Z" fill="#BCBCBC"/>
<path d="M114.777 7.49621C114.777 6.7017 115.421 6.05762 116.215 6.05762H245.835C246.617 6.05762 247.255 6.68147 247.273 7.46272L247.96 36.9495L253.79 44.2182L247.96 51.7897L247.277 77.949C247.257 78.7287 246.619 79.3501 245.839 79.3501H116.215C115.421 79.3501 114.777 78.706 114.777 77.9115V7.49621Z" fill="#F7F9FF"/>
<path d="M132.727 19.959V20.839H130.657V26.959H129.737V20.839H127.677V19.959H132.727ZM136.869 26.329C136.356 26.8357 135.732 27.089 134.999 27.089C134.266 27.089 133.642 26.8357 133.129 26.329C132.622 25.8223 132.369 25.199 132.369 24.459C132.369 23.719 132.622 23.0957 133.129 22.589C133.642 22.0823 134.266 21.829 134.999 21.829C135.732 21.829 136.356 22.0823 136.869 22.589C137.382 23.0957 137.639 23.719 137.639 24.459C137.639 25.199 137.382 25.8223 136.869 26.329ZM134.999 26.239C135.499 26.239 135.919 26.069 136.259 25.729C136.599 25.389 136.769 24.9657 136.769 24.459C136.769 23.9523 136.599 23.529 136.259 23.189C135.919 22.849 135.499 22.679 134.999 22.679C134.506 22.679 134.089 22.849 133.749 23.189C133.409 23.529 133.239 23.9523 133.239 24.459C133.239 24.9657 133.409 25.389 133.749 25.729C134.089 26.069 134.506 26.239 134.999 26.239ZM141.277 22.799H139.947V25.509C139.947 25.7557 139.994 25.9323 140.087 26.039C140.187 26.139 140.337 26.1923 140.537 26.199C140.737 26.199 140.984 26.1923 141.277 26.179V26.959C140.517 27.059 139.961 26.999 139.607 26.779C139.254 26.5523 139.077 26.129 139.077 25.509V22.799H138.087V21.959H139.077V20.819L139.947 20.559V21.959H141.277V22.799ZM146.193 21.959H147.063V26.959H146.193V26.099C145.76 26.759 145.13 27.089 144.303 27.089C143.603 27.089 143.007 26.8357 142.513 26.329C142.02 25.8157 141.773 25.1923 141.773 24.459C141.773 23.7257 142.02 23.1057 142.513 22.599C143.007 22.0857 143.603 21.829 144.303 21.829C145.13 21.829 145.76 22.159 146.193 22.819V21.959ZM144.413 26.249C144.92 26.249 145.343 26.079 145.683 25.739C146.023 25.3923 146.193 24.9657 146.193 24.459C146.193 23.9523 146.023 23.529 145.683 23.189C145.343 22.8423 144.92 22.669 144.413 22.669C143.913 22.669 143.493 22.8423 143.153 23.189C142.813 23.529 142.643 23.9523 142.643 24.459C142.643 24.9657 142.813 25.3923 143.153 25.739C143.493 26.079 143.913 26.249 144.413 26.249ZM148.381 26.959V19.659H149.251V26.959H148.381ZM155.569 21.829C156.155 21.829 156.625 22.0157 156.979 22.389C157.332 22.7557 157.509 23.2557 157.509 23.889V26.959H156.639V23.939C156.639 23.5323 156.529 23.219 156.309 22.999C156.089 22.7723 155.785 22.659 155.399 22.659C154.965 22.659 154.615 22.7957 154.349 23.069C154.082 23.3357 153.949 23.749 153.949 24.309V26.959H153.079V19.959H153.949V22.679C154.302 22.1123 154.842 21.829 155.569 21.829ZM162.106 21.959H163.036L160.996 27.269C160.782 27.8357 160.482 28.2657 160.096 28.559C159.716 28.859 159.276 28.9923 158.776 28.959V28.149C159.389 28.1957 159.839 27.8557 160.126 27.129L160.216 26.939L158.036 21.959H158.966L160.666 25.879L162.106 21.959ZM166.522 21.829C167.222 21.829 167.819 22.0857 168.312 22.599C168.806 23.1057 169.052 23.7257 169.052 24.459C169.052 25.1923 168.806 25.8157 168.312 26.329C167.819 26.8357 167.222 27.089 166.522 27.089C165.696 27.089 165.066 26.759 164.632 26.099V28.959H163.762V21.959H164.632V22.819C165.066 22.159 165.696 21.829 166.522 21.829ZM166.412 26.249C166.912 26.249 167.332 26.079 167.672 25.739C168.012 25.3923 168.182 24.9657 168.182 24.459C168.182 23.9523 168.012 23.529 167.672 23.189C167.332 22.8423 166.912 22.669 166.412 22.669C165.906 22.669 165.482 22.8423 165.142 23.189C164.802 23.529 164.632 23.9523 164.632 24.459C164.632 24.9657 164.802 25.3923 165.142 25.739C165.482 26.079 165.906 26.249 166.412 26.249ZM174.31 26.329C173.797 26.8357 173.174 27.089 172.44 27.089C171.707 27.089 171.084 26.8357 170.57 26.329C170.064 25.8223 169.81 25.199 169.81 24.459C169.81 23.719 170.064 23.0957 170.57 22.589C171.084 22.0823 171.707 21.829 172.44 21.829C173.174 21.829 173.797 22.0823 174.31 22.589C174.824 23.0957 175.08 23.719 175.08 24.459C175.08 25.199 174.824 25.8223 174.31 26.329ZM172.44 26.239C172.94 26.239 173.36 26.069 173.7 25.729C174.04 25.389 174.21 24.9657 174.21 24.459C174.21 23.9523 174.04 23.529 173.7 23.189C173.36 22.849 172.94 22.679 172.44 22.679C171.947 22.679 171.53 22.849 171.19 23.189C170.85 23.529 170.68 23.9523 170.68 24.459C170.68 24.9657 170.85 25.389 171.19 25.729C171.53 26.069 171.947 26.239 172.44 26.239ZM178.719 22.799H177.389V25.509C177.389 25.7557 177.435 25.9323 177.529 26.039C177.629 26.139 177.779 26.1923 177.979 26.199C178.179 26.199 178.425 26.1923 178.719 26.179V26.959C177.959 27.059 177.402 26.999 177.049 26.779C176.695 26.5523 176.519 26.129 176.519 25.509V22.799H175.529V21.959H176.519V20.819L177.389 20.559V21.959H178.719V22.799ZM180.105 24.859C180.191 25.3057 180.395 25.6523 180.715 25.899C181.041 26.1457 181.441 26.269 181.915 26.269C182.575 26.269 183.055 26.0257 183.355 25.539L184.095 25.959C183.608 26.7123 182.875 27.089 181.895 27.089C181.101 27.089 180.455 26.8423 179.955 26.349C179.461 25.849 179.215 25.219 179.215 24.459C179.215 23.7057 179.458 23.079 179.945 22.579C180.431 22.079 181.061 21.829 181.835 21.829C182.568 21.829 183.165 22.089 183.625 22.609C184.091 23.1223 184.325 23.7423 184.325 24.469C184.325 24.5957 184.315 24.7257 184.295 24.859H180.105ZM181.835 22.649C181.368 22.649 180.981 22.7823 180.675 23.049C180.368 23.309 180.178 23.659 180.105 24.099H183.445C183.371 23.6257 183.185 23.2657 182.885 23.019C182.585 22.7723 182.235 22.649 181.835 22.649ZM187.898 22.799H186.568V25.509C186.568 25.7557 186.615 25.9323 186.708 26.039C186.808 26.139 186.958 26.1923 187.158 26.199C187.358 26.199 187.605 26.1923 187.898 26.179V26.959C187.138 27.059 186.582 26.999 186.228 26.779C185.875 26.5523 185.698 26.129 185.698 25.509V22.799H184.708V21.959H185.698V20.819L186.568 20.559V21.959H187.898V22.799ZM189.368 21.049C189.202 21.049 189.062 20.9923 188.948 20.879C188.835 20.7657 188.778 20.629 188.778 20.469C188.778 20.309 188.835 20.1723 188.948 20.059C189.062 19.939 189.202 19.879 189.368 19.879C189.528 19.879 189.665 19.939 189.778 20.059C189.892 20.1723 189.948 20.309 189.948 20.469C189.948 20.629 189.892 20.7657 189.778 20.879C189.665 20.9923 189.528 21.049 189.368 21.049ZM188.928 26.959V21.959H189.798V26.959H188.928ZM193.476 27.089C192.722 27.089 192.096 26.839 191.596 26.339C191.096 25.8323 190.846 25.2057 190.846 24.459C190.846 23.7123 191.096 23.089 191.596 22.589C192.096 22.0823 192.722 21.829 193.476 21.829C193.969 21.829 194.412 21.949 194.806 22.189C195.199 22.4223 195.492 22.739 195.686 23.139L194.956 23.559C194.829 23.2923 194.632 23.079 194.366 22.919C194.106 22.759 193.809 22.679 193.476 22.679C192.976 22.679 192.556 22.849 192.216 23.189C191.882 23.529 191.716 23.9523 191.716 24.459C191.716 24.959 191.882 25.379 192.216 25.719C192.556 26.059 192.976 26.229 193.476 26.229C193.809 26.229 194.109 26.1523 194.376 25.999C194.642 25.839 194.846 25.6257 194.986 25.359L195.726 25.789C195.512 26.1823 195.206 26.499 194.806 26.739C194.406 26.9723 193.962 27.089 193.476 27.089ZM200.656 21.959H201.526V26.959H200.656V26.099C200.223 26.759 199.593 27.089 198.766 27.089C198.066 27.089 197.47 26.8357 196.976 26.329C196.483 25.8157 196.236 25.1923 196.236 24.459C196.236 23.7257 196.483 23.1057 196.976 22.599C197.47 22.0857 198.066 21.829 198.766 21.829C199.593 21.829 200.223 22.159 200.656 22.819V21.959ZM198.876 26.249C199.383 26.249 199.806 26.079 200.146 25.739C200.486 25.3923 200.656 24.9657 200.656 24.459C200.656 23.9523 200.486 23.529 200.146 23.189C199.806 22.8423 199.383 22.669 198.876 22.669C198.376 22.669 197.956 22.8423 197.616 23.189C197.276 23.529 197.106 23.9523 197.106 24.459C197.106 24.9657 197.276 25.3923 197.616 25.739C197.956 26.079 198.376 26.249 198.876 26.249ZM202.844 26.959V19.659H203.714V26.959H202.844ZM208.412 22.799C208.698 22.179 209.218 21.869 209.972 21.869V22.779C209.545 22.759 209.178 22.8723 208.872 23.119C208.565 23.3657 208.412 23.7623 208.412 24.309V26.959H207.542V21.959H208.412V22.799ZM211.159 24.859C211.246 25.3057 211.449 25.6523 211.769 25.899C212.096 26.1457 212.496 26.269 212.969 26.269C213.629 26.269 214.109 26.0257 214.409 25.539L215.149 25.959C214.663 26.7123 213.929 27.089 212.949 27.089C212.156 27.089 211.509 26.8423 211.009 26.349C210.516 25.849 210.269 25.219 210.269 24.459C210.269 23.7057 210.513 23.079 210.999 22.579C211.486 22.079 212.116 21.829 212.889 21.829C213.623 21.829 214.219 22.089 214.679 22.609C215.146 23.1223 215.379 23.7423 215.379 24.469C215.379 24.5957 215.369 24.7257 215.349 24.859H211.159ZM212.889 22.649C212.423 22.649 212.036 22.7823 211.729 23.049C211.423 23.309 211.233 23.659 211.159 24.099H214.499C214.426 23.6257 214.239 23.2657 213.939 23.019C213.639 22.7723 213.289 22.649 212.889 22.649ZM218.953 22.799H217.623V25.509C217.623 25.7557 217.67 25.9323 217.763 26.039C217.863 26.139 218.013 26.1923 218.213 26.199C218.413 26.199 218.66 26.1923 218.953 26.179V26.959C218.193 27.059 217.636 26.999 217.283 26.779C216.93 26.5523 216.753 26.129 216.753 25.509V22.799H215.763V21.959H216.753V20.819L217.623 20.559V21.959H218.953V22.799ZM223.462 21.959H224.332V26.959H223.462V26.239C223.109 26.8057 222.569 27.089 221.842 27.089C221.256 27.089 220.786 26.9057 220.432 26.539C220.079 26.1657 219.902 25.6623 219.902 25.029V21.959H220.772V24.979C220.772 25.3857 220.882 25.7023 221.102 25.929C221.322 26.149 221.626 26.259 222.012 26.259C222.446 26.259 222.796 26.1257 223.062 25.859C223.329 25.5857 223.462 25.169 223.462 24.609V21.959ZM226.527 22.799C226.813 22.179 227.333 21.869 228.087 21.869V22.779C227.66 22.759 227.293 22.8723 226.987 23.119C226.68 23.3657 226.527 23.7623 226.527 24.309V26.959H225.657V21.959H226.527V22.799ZM231.428 21.829C232.015 21.829 232.485 22.0157 232.838 22.389C233.191 22.7557 233.368 23.2557 233.368 23.889V26.959H232.498V23.939C232.498 23.5323 232.388 23.219 232.168 22.999C231.948 22.7723 231.645 22.659 231.258 22.659C230.825 22.659 230.475 22.7957 230.208 23.069C229.941 23.3357 229.808 23.749 229.808 24.309V26.959H228.938V21.959H229.808V22.679C230.161 22.1123 230.701 21.829 231.428 21.829Z" fill="#363636"/>
<path d="M133.437 39.147V40.371H131.409V42.399H130.185V40.371H128.157V39.147H130.185V37.119H131.409V39.147H133.437ZM140.322 43.323C139.73 43.851 138.966 44.115 138.03 44.115C137.094 44.115 136.33 43.851 135.738 43.323C135.146 42.787 134.85 42.071 134.85 41.175V35.559H136.23V41.091C136.23 41.603 136.378 42.011 136.674 42.315C136.978 42.619 137.43 42.771 138.03 42.771C138.63 42.771 139.078 42.619 139.374 42.315C139.678 42.011 139.83 41.603 139.83 41.091V35.559H141.21V41.175C141.21 42.071 140.914 42.787 140.322 43.323ZM145.594 44.115C144.786 44.115 144.098 43.931 143.53 43.563C142.97 43.195 142.578 42.691 142.354 42.051L143.542 41.355C143.878 42.299 144.574 42.771 145.63 42.771C146.15 42.771 146.538 42.671 146.794 42.471C147.058 42.263 147.19 41.995 147.19 41.667C147.19 41.323 147.05 41.063 146.77 40.887C146.49 40.703 145.994 40.503 145.282 40.287C144.882 40.167 144.558 40.055 144.31 39.951C144.062 39.847 143.798 39.703 143.518 39.519C143.246 39.327 143.042 39.091 142.906 38.811C142.77 38.531 142.702 38.203 142.702 37.827C142.702 37.083 142.966 36.495 143.494 36.063C144.022 35.623 144.658 35.403 145.402 35.403C146.074 35.403 146.662 35.567 147.166 35.895C147.67 36.223 148.058 36.675 148.33 37.251L147.166 37.923C146.814 37.139 146.226 36.747 145.402 36.747C145.002 36.747 144.682 36.843 144.442 37.035C144.202 37.219 144.082 37.471 144.082 37.791C144.082 38.103 144.202 38.351 144.442 38.535C144.69 38.711 145.134 38.899 145.774 39.099C146.094 39.203 146.326 39.283 146.47 39.339C146.622 39.387 146.83 39.467 147.094 39.579C147.366 39.691 147.57 39.803 147.706 39.915C147.842 40.027 147.986 40.167 148.138 40.335C148.298 40.503 148.41 40.695 148.474 40.911C148.538 41.127 148.57 41.371 148.57 41.643C148.57 42.403 148.294 43.007 147.742 43.455C147.198 43.895 146.482 44.115 145.594 44.115ZM153 35.559C154.152 35.559 155.108 35.963 155.868 36.771C156.636 37.579 157.02 38.575 157.02 39.759C157.02 40.935 156.636 41.931 155.868 42.747C155.108 43.555 154.152 43.959 153 43.959H149.7V35.559H153ZM153 42.639C153.792 42.639 154.436 42.367 154.932 41.823C155.436 41.279 155.688 40.591 155.688 39.759C155.688 38.919 155.436 38.231 154.932 37.695C154.436 37.151 153.792 36.879 153 36.879H151.08V42.639H153ZM167.194 41.163V42.447H166.234V43.959H164.842V42.447H160.714V41.163L163.606 35.559H165.106L162.214 41.163H164.842V38.979H166.234V41.163H167.194ZM167.771 43.959V42.879L170.699 39.891C171.411 39.179 171.767 38.563 171.767 38.043C171.767 37.635 171.643 37.319 171.395 37.095C171.155 36.863 170.847 36.747 170.471 36.747C169.767 36.747 169.247 37.095 168.911 37.791L167.747 37.107C168.011 36.547 168.383 36.123 168.863 35.835C169.343 35.547 169.875 35.403 170.459 35.403C171.195 35.403 171.827 35.635 172.355 36.099C172.883 36.563 173.147 37.195 173.147 37.995C173.147 38.851 172.671 39.763 171.719 40.731L169.823 42.627H173.303V43.959H167.771ZM177.642 38.991C178.25 39.135 178.742 39.419 179.118 39.843C179.502 40.259 179.694 40.783 179.694 41.415C179.694 42.255 179.41 42.915 178.842 43.395C178.274 43.875 177.578 44.115 176.754 44.115C176.114 44.115 175.538 43.967 175.026 43.671C174.522 43.375 174.158 42.943 173.934 42.375L175.11 41.691C175.358 42.411 175.906 42.771 176.754 42.771C177.234 42.771 177.614 42.651 177.894 42.411C178.174 42.163 178.314 41.831 178.314 41.415C178.314 40.999 178.174 40.671 177.894 40.431C177.614 40.191 177.234 40.071 176.754 40.071H176.442L175.89 39.243L177.702 36.855H174.186V35.559H179.346V36.735L177.642 38.991ZM182.052 43.839C181.876 44.015 181.664 44.103 181.416 44.103C181.168 44.103 180.956 44.015 180.78 43.839C180.604 43.663 180.516 43.451 180.516 43.203C180.516 42.955 180.6 42.743 180.768 42.567C180.944 42.391 181.16 42.303 181.416 42.303C181.664 42.303 181.876 42.391 182.052 42.567C182.228 42.743 182.316 42.955 182.316 43.203C182.316 43.451 182.228 43.663 182.052 43.839ZM185.302 35.559H186.502V43.959H185.122V37.035L183.43 37.515L183.094 36.339L185.302 35.559ZM192.479 39.591C193.303 40.047 193.715 40.727 193.715 41.631C193.715 42.399 193.447 43.007 192.911 43.455C192.375 43.895 191.663 44.115 190.775 44.115C189.887 44.115 189.171 43.895 188.627 43.455C188.091 43.007 187.823 42.399 187.823 41.631C187.823 41.199 187.931 40.807 188.147 40.455C188.363 40.095 188.667 39.807 189.059 39.591C188.427 39.175 188.111 38.583 188.111 37.815C188.111 37.047 188.367 36.455 188.879 36.039C189.391 35.615 190.023 35.403 190.775 35.403C191.519 35.403 192.147 35.615 192.659 36.039C193.179 36.455 193.439 37.047 193.439 37.815C193.439 38.583 193.119 39.175 192.479 39.591ZM190.775 36.711C190.399 36.711 190.091 36.811 189.851 37.011C189.611 37.211 189.491 37.499 189.491 37.875C189.491 38.235 189.611 38.519 189.851 38.727C190.099 38.935 190.407 39.039 190.775 39.039C191.135 39.039 191.439 38.935 191.687 38.727C191.935 38.519 192.059 38.235 192.059 37.875C192.059 37.499 191.935 37.211 191.687 37.011C191.447 36.811 191.143 36.711 190.775 36.711ZM190.775 42.807C191.239 42.807 191.615 42.695 191.903 42.471C192.191 42.239 192.335 41.915 192.335 41.499C192.335 41.083 192.191 40.763 191.903 40.539C191.615 40.307 191.239 40.191 190.775 40.191C190.303 40.191 189.923 40.307 189.635 40.539C189.347 40.763 189.203 41.083 189.203 41.499C189.203 41.915 189.347 42.239 189.635 42.471C189.923 42.695 190.303 42.807 190.775 42.807ZM196.025 35.559H197.225V43.959H195.845V37.035L194.153 37.515L193.817 36.339L196.025 35.559ZM200.682 42.519L199.842 45.639H198.762L199.242 42.519H200.682ZM208.058 41.163V42.447H207.098V43.959H205.706V42.447H201.578V41.163L204.47 35.559H205.97L203.078 41.163H205.706V38.979H207.098V41.163H208.058ZM208.634 43.959V42.879L211.562 39.891C212.274 39.179 212.63 38.563 212.63 38.043C212.63 37.635 212.506 37.319 212.258 37.095C212.018 36.863 211.71 36.747 211.334 36.747C210.63 36.747 210.11 37.095 209.774 37.791L208.61 37.107C208.874 36.547 209.246 36.123 209.726 35.835C210.206 35.547 210.738 35.403 211.322 35.403C212.058 35.403 212.69 35.635 213.218 36.099C213.746 36.563 214.01 37.195 214.01 37.995C214.01 38.851 213.534 39.763 212.582 40.731L210.686 42.627H214.166V43.959H208.634Z" fill="#7CA1FF"/>
<rect x="129.314" y="53.3037" width="54.5151" height="15.1431" rx="1.21145" fill="#E3F7E3"/>
<path d="M138.363 61.0237V61.7651H137.135V62.9935H136.394V61.7651H135.165V61.0237H136.394V59.7953H137.135V61.0237H138.363ZM140.688 58.8504H143.922V59.5773L142.134 63.9385H141.255L143.014 59.65H140.688V58.8504ZM144.597 63.0662L144.089 64.9561H143.434L143.725 63.0662H144.597ZM147.4 60.9292C147.769 61.0165 148.067 61.1885 148.295 61.4453C148.527 61.6973 148.643 62.0147 148.643 62.3975C148.643 62.9063 148.471 63.3061 148.127 63.5968C147.783 63.8876 147.362 64.033 146.863 64.033C146.475 64.033 146.126 63.9433 145.816 63.764C145.511 63.5847 145.29 63.3231 145.154 62.979L145.867 62.5647C146.017 63.0008 146.349 63.2189 146.863 63.2189C147.153 63.2189 147.384 63.1462 147.553 63.0008C147.723 62.8506 147.808 62.6495 147.808 62.3975C147.808 62.1455 147.723 61.9469 147.553 61.8015C147.384 61.6561 147.153 61.5834 146.863 61.5834H146.674L146.339 61.0819L147.437 59.6354H145.307V58.8504H148.433V59.5627L147.4 60.9292ZM153.114 60.7475C152.891 60.9704 152.61 61.0819 152.271 61.0819C151.932 61.0819 151.648 60.9704 151.42 60.7475C151.193 60.5198 151.079 60.2436 151.079 59.9189C151.079 59.5942 151.193 59.3204 151.42 59.0975C151.648 58.8698 151.932 58.7559 152.271 58.7559C152.61 58.7559 152.891 58.8674 153.114 59.0903C153.342 59.3132 153.456 59.5894 153.456 59.9189C153.456 60.2436 153.342 60.5198 153.114 60.7475ZM152.264 60.4422C152.419 60.4422 152.545 60.3914 152.641 60.2896C152.738 60.1878 152.787 60.0643 152.787 59.9189C152.787 59.7687 152.738 59.6427 152.641 59.5409C152.545 59.4392 152.419 59.3883 152.264 59.3883C152.113 59.3883 151.99 59.4392 151.893 59.5409C151.796 59.6427 151.747 59.7687 151.747 59.9189C151.747 60.0643 151.796 60.1878 151.893 60.2896C151.99 60.3914 152.113 60.4422 152.264 60.4422ZM151.508 63.1898L154.858 59.461L155.251 59.6863L151.9 63.4224L151.508 63.1898ZM154.597 64.0257C154.258 64.0257 153.974 63.9142 153.746 63.6913C153.519 63.4636 153.405 63.1874 153.405 62.8627C153.405 62.538 153.519 62.2643 153.746 62.0414C153.974 61.8136 154.258 61.6997 154.597 61.6997C154.931 61.6997 155.212 61.8136 155.44 62.0414C155.668 62.2643 155.782 62.538 155.782 62.8627C155.782 63.1874 155.668 63.4636 155.44 63.6913C155.212 63.9142 154.931 64.0257 154.597 64.0257ZM154.589 63.3861C154.745 63.3861 154.871 63.3352 154.967 63.2334C155.064 63.1317 155.113 63.0081 155.113 62.8627C155.113 62.7125 155.064 62.5865 154.967 62.4847C154.871 62.383 154.745 62.3321 154.589 62.3321C154.439 62.3321 154.316 62.383 154.219 62.4847C154.122 62.5865 154.073 62.7125 154.073 62.8627C154.073 63.0081 154.122 63.1317 154.219 63.2334C154.316 63.3352 154.439 63.3861 154.589 63.3861ZM158.617 64.6653H158.217L161.125 58.1235H161.524L158.617 64.6653ZM168.018 58.8504L166.245 61.9178V63.9385H165.409V61.9178L163.635 58.8504H164.587L165.83 61.1037L167.066 58.8504H168.018ZM168.408 62.4557C168.466 62.7319 168.6 62.9451 168.808 63.0953C169.016 63.2407 169.271 63.3134 169.571 63.3134C169.988 63.3134 170.3 63.1632 170.509 62.8627L171.156 63.2407C170.797 63.7689 170.267 64.033 169.564 64.033C168.973 64.033 168.495 63.8537 168.132 63.4951C167.769 63.1317 167.587 62.6737 167.587 62.1213C167.587 61.5786 167.766 61.1255 168.125 60.7621C168.483 60.3938 168.944 60.2096 169.506 60.2096C170.039 60.2096 170.475 60.3962 170.814 60.7693C171.158 61.1425 171.33 61.5955 171.33 62.1286C171.33 62.211 171.321 62.32 171.301 62.4557H168.408ZM168.401 61.816H170.538C170.485 61.5204 170.361 61.2975 170.167 61.1473C169.978 60.9971 169.755 60.922 169.499 60.922C169.208 60.922 168.965 61.0019 168.772 61.1618C168.578 61.3218 168.454 61.5398 168.401 61.816ZM174.878 60.3041H175.663V63.9385H174.878V63.4151C174.582 63.827 174.158 64.033 173.606 64.033C173.107 64.033 172.681 63.8488 172.327 63.4806C171.973 63.1074 171.796 62.6543 171.796 62.1213C171.796 61.5834 171.973 61.1303 172.327 60.7621C172.681 60.3938 173.107 60.2096 173.606 60.2096C174.158 60.2096 174.582 60.4132 174.878 60.8202V60.3041ZM172.908 62.9572C173.126 63.1753 173.4 63.2843 173.73 63.2843C174.059 63.2843 174.333 63.1753 174.551 62.9572C174.769 62.7343 174.878 62.4557 174.878 62.1213C174.878 61.7869 174.769 61.5107 174.551 61.2927C174.333 61.0698 174.059 60.9583 173.73 60.9583C173.4 60.9583 173.126 61.0698 172.908 61.2927C172.69 61.5107 172.581 61.7869 172.581 62.1213C172.581 62.4557 172.69 62.7343 172.908 62.9572ZM177.363 60.9147C177.562 60.464 177.935 60.2387 178.482 60.2387V61.0892C178.182 61.0698 177.92 61.1425 177.697 61.3072C177.475 61.4671 177.363 61.7336 177.363 62.1068V63.9385H176.578V60.3041H177.363V60.9147Z" fill="#3EAF3F"/>
<defs>
<filter id="filter0_d_242_581" x="276.933" y="33.4005" width="14.5826" height="14.5829" filterUnits="userSpaceOnUse" color-interpolation-filters="sRGB">
<feFlood flood-opacity="0" result="BackgroundImageFix"/>
<feColorMatrix in="SourceAlpha" type="matrix" values="0 0 0 0 0 0 0 0 0 0 0 0 0 0 0 0 0 0 127 0" result="hardAlpha"/>
<feOffset/>
<feGaussianBlur stdDeviation="2.14449"/>
<feComposite in2="hardAlpha" operator="out"/>
<feColorMatrix type="matrix" values="0 0 0 0 0.275 0 0 0 0 0.478 0 0 0 0 1 0 0 0 0.56 0"/>
<feBlend mode="normal" in2="BackgroundImageFix" result="effect1_dropShadow_242_581"/>
<feBlend mode="normal" in="SourceGraphic" in2="effect1_dropShadow_242_581" result="shape"/>
</filter>
<linearGradient id="paint0_linear_242_581" x1="19.6814" y1="3.4082" x2="19.6814" y2="261.356" gradientUnits="userSpaceOnUse">
<stop stop-color="#EAEAEA" stop-opacity="0.5"/>
<stop offset="1" stop-color="#EAEAEA"/>
</linearGradient>
<linearGradient id="paint1_linear_242_581" x1="108.316" y1="3.4082" x2="108.316" y2="261.356" gradientUnits="userSpaceOnUse">
<stop stop-color="#EAEAEA" stop-opacity="0.5"/>
<stop offset="1" stop-color="#EAEAEA"/>
</linearGradient>
<linearGradient id="paint2_linear_242_581" x1="196.45" y1="261.449" x2="196.45" y2="3.4082" gradientUnits="userSpaceOnUse">
<stop stop-color="#EAEAEA"/>
<stop offset="1" stop-color="#EAEAEA" stop-opacity="0.5"/>
</linearGradient>
<linearGradient id="paint3_linear_242_581" x1="284.448" y1="3.4082" x2="284.448" y2="261.356" gradientUnits="userSpaceOnUse">
<stop stop-color="#EAEAEA" stop-opacity="0.5"/>
<stop offset="1" stop-color="#EAEAEA"/>
</linearGradient>
<linearGradient id="paint4_linear_242_581" x1="231.558" y1="146.863" x2="229.758" y2="260.173" gradientUnits="userSpaceOnUse">
<stop stop-color="#7CA1FF"/>
<stop offset="1" stop-color="#E3EBFF"/>
</linearGradient>
<linearGradient id="paint5_linear_242_581" x1="298.756" y1="21.2213" x2="-12.3866" y2="213.894" gradientUnits="userSpaceOnUse">
<stop stop-color="#467AFF" stop-opacity="0"/>
<stop offset="0.546875" stop-color="#467AFF"/>
<stop offset="1" stop-color="#467AFF" stop-opacity="0"/>
</linearGradient>
</defs>
</svg>
