<svg width="29" height="29" viewBox="0 0 29 29" fill="none" xmlns="http://www.w3.org/2000/svg">
<path d="M14.5001 15.7087C15.1674 15.7087 15.7084 15.1677 15.7084 14.5003C15.7084 13.833 15.1674 13.292 14.5001 13.292C13.8327 13.292 13.2917 13.833 13.2917 14.5003C13.2917 15.1677 13.8327 15.7087 14.5001 15.7087Z" stroke="#979797" stroke-width="2.41667" stroke-linecap="round" stroke-linejoin="round"/>
<path d="M22.9583 15.7087C23.6257 15.7087 24.1667 15.1677 24.1667 14.5003C24.1667 13.833 23.6257 13.292 22.9583 13.292C22.291 13.292 21.75 13.833 21.75 14.5003C21.75 15.1677 22.291 15.7087 22.9583 15.7087Z" stroke="#979797" stroke-width="2.41667" stroke-linecap="round" stroke-linejoin="round"/>
<path d="M6.04159 15.7087C6.70893 15.7087 7.24992 15.1677 7.24992 14.5003C7.24992 13.833 6.70893 13.292 6.04159 13.292C5.37424 13.292 4.83325 13.833 4.83325 14.5003C4.83325 15.1677 5.37424 15.7087 6.04159 15.7087Z" stroke="#979797" stroke-width="2.41667" stroke-linecap="round" stroke-linejoin="round"/>
</svg>
