<svg width="28" height="28" viewBox="0 0 28 28" fill="none" xmlns="http://www.w3.org/2000/svg">
<path d="M25.6667 9.91634C25.6667 14.1047 22.2717 17.4997 18.0833 17.4997C17.885 17.4997 17.675 17.488 17.4767 17.4764C17.185 13.778 14.2217 10.8147 10.5233 10.523C10.5117 10.3247 10.5 10.1147 10.5 9.91634C10.5 5.72801 13.895 2.33301 18.0833 2.33301C22.2717 2.33301 25.6667 5.72801 25.6667 9.91634Z" stroke="#467AFF" stroke-width="1.75" stroke-linecap="round" stroke-linejoin="round"/>
<path d="M17.5002 18.0833C17.5002 22.2717 14.1052 25.6667 9.91683 25.6667C5.7285 25.6667 2.3335 22.2717 2.3335 18.0833C2.3335 13.895 5.7285 10.5 9.91683 10.5C10.1152 10.5 10.3251 10.5117 10.5235 10.5233C14.2218 10.815 17.1852 13.7783 17.4768 17.4767C17.4885 17.675 17.5002 17.885 17.5002 18.0833Z" stroke="#467AFF" stroke-width="1.75" stroke-linecap="round" stroke-linejoin="round"/>
<path d="M8.88999 17.057L9.91667 15.167L10.9433 17.057L12.8333 18.0837L10.9433 19.1103L9.91667 21.0003L8.88999 19.1103L7 18.0837L8.88999 17.057Z" stroke="#467AFF" stroke-width="1.2" stroke-linecap="round" stroke-linejoin="round"/>
</svg>
