<svg width="17" height="17" viewBox="0 0 17 17" fill="none" xmlns="http://www.w3.org/2000/svg">
<g clip-path="url(#clip0_2460_7053)">
<path d="M14.9854 7.16797C14.9854 11.8346 8.98535 15.8346 8.98535 15.8346C8.98535 15.8346 2.98535 11.8346 2.98535 7.16797C2.98535 5.57667 3.61749 4.05055 4.74271 2.92533C5.86793 1.80011 7.39405 1.16797 8.98535 1.16797C10.5767 1.16797 12.1028 1.80011 13.228 2.92533C14.3532 4.05055 14.9854 5.57667 14.9854 7.16797Z" stroke="#7CA1FF" stroke-linecap="round" stroke-linejoin="round"/>
<path d="M8.98535 9.16797C10.0899 9.16797 10.9854 8.27254 10.9854 7.16797C10.9854 6.0634 10.0899 5.16797 8.98535 5.16797C7.88078 5.16797 6.98535 6.0634 6.98535 7.16797C6.98535 8.27254 7.88078 9.16797 8.98535 9.16797Z" stroke="#7CA1FF" stroke-linecap="round" stroke-linejoin="round"/>
</g>
<defs>
<clipPath id="clip0_2460_7053">
<rect width="16" height="16" fill="white" transform="translate(0.985352 0.5)"/>
</clipPath>
</defs>
</svg>
