<svg width="18" height="18" viewBox="0 0 18 18" fill="none" xmlns="http://www.w3.org/2000/svg">
<path d="M8.02722 0.801447C8.39099 0.0644898 9.44187 0.0644912 9.80564 0.801449L11.7501 4.74071C11.8944 5.03309 12.1733 5.23584 12.4959 5.283L16.8458 5.91881C17.6589 6.03765 17.9829 7.03707 17.3943 7.6104L14.2483 10.6746C14.0144 10.9024 13.9076 11.2308 13.9628 11.5526L14.7051 15.8804C14.844 16.6905 13.9936 17.3083 13.2661 16.9257L9.37799 14.8809C9.08904 14.729 8.74381 14.729 8.45487 14.8809L4.56672 16.9257C3.83922 17.3083 2.98884 16.6905 3.12778 15.8804L3.87004 11.5526C3.92524 11.2308 3.81848 10.9024 3.58457 10.6746L0.438555 7.6104C-0.150077 7.03707 0.173975 6.03765 0.987038 5.91881L5.33696 5.283C5.6596 5.23584 5.93843 5.03309 6.08276 4.74071L8.02722 0.801447Z" fill="#FFC130"/>
</svg>
