<svg width="16" height="17" viewBox="0 0 16 17" fill="none" xmlns="http://www.w3.org/2000/svg">
<path d="M3.83688 15.1484C4.23866 15.1484 4.56438 14.8226 4.56438 14.4209C4.56438 14.0191 4.23866 13.6934 3.83688 13.6934C3.43509 13.6934 3.10938 14.0191 3.10938 14.4209C3.10938 14.8226 3.43509 15.1484 3.83688 15.1484Z" fill="#979797"/>
<path d="M5.53439 13.4511C5.93617 13.4511 6.26189 13.1254 6.26189 12.7236C6.26189 12.3218 5.93617 11.9961 5.53439 11.9961C5.1326 11.9961 4.80688 12.3218 4.80688 12.7236C4.80688 13.1254 5.1326 13.4511 5.53439 13.4511Z" fill="#979797"/>
<path d="M1.89694 13.2089C2.29872 13.2089 2.62444 12.8832 2.62444 12.4814C2.62444 12.0796 2.29872 11.7539 1.89694 11.7539C1.49515 11.7539 1.16943 12.0796 1.16943 12.4814C1.16943 12.8832 1.49515 13.2089 1.89694 13.2089Z" fill="#979797"/>
<path d="M3.59469 11.5116C3.99648 11.5116 4.32219 11.1859 4.32219 10.7841C4.32219 10.3824 3.99648 10.0566 3.59469 10.0566C3.1929 10.0566 2.86719 10.3824 2.86719 10.7841C2.86719 11.1859 3.1929 11.5116 3.59469 11.5116Z" fill="#979797"/>
<path d="M15.2345 3.02344H13.4946C13.4316 3.02322 13.3692 3.03542 13.311 3.05935C13.2527 3.08328 13.1997 3.11846 13.1551 3.16288L11.3545 4.96344L3.55207 6.26082C3.46374 6.27544 3.38118 6.31422 3.31353 6.37287C3.24589 6.43151 3.19579 6.50774 3.1688 6.59311C3.14181 6.67847 3.13898 6.76964 3.16061 6.85652C3.18225 6.94339 3.22751 7.02259 3.29138 7.08532L9.23264 13.0266C9.29538 13.0905 9.37457 13.1357 9.46145 13.1574C9.54833 13.179 9.6395 13.1762 9.72486 13.1492C9.81023 13.1222 9.88645 13.0721 9.9451 13.0044C10.0038 12.9368 10.0425 12.8542 10.0571 12.7659L11.3545 4.96344" stroke="#979797" stroke-width="1.07606" stroke-linecap="round" stroke-linejoin="round"/>
</svg>
