<svg width="16" height="17" viewBox="0 0 16 17" fill="none" xmlns="http://www.w3.org/2000/svg">
<path d="M3.75 15.5C4.16421 15.5 4.5 15.1642 4.5 14.75C4.5 14.3358 4.16421 14 3.75 14C3.33579 14 3 14.3358 3 14.75C3 15.1642 3.33579 15.5 3.75 15.5Z" fill="#7CA1FF"/>
<path d="M5.5 13.75C5.91421 13.75 6.25 13.4142 6.25 13C6.25 12.5858 5.91421 12.25 5.5 12.25C5.08579 12.25 4.75 12.5858 4.75 13C4.75 13.4142 5.08579 13.75 5.5 13.75Z" fill="#7CA1FF"/>
<path d="M1.75 13.5C2.16421 13.5 2.5 13.1642 2.5 12.75C2.5 12.3358 2.16421 12 1.75 12C1.33579 12 1 12.3358 1 12.75C1 13.1642 1.33579 13.5 1.75 13.5Z" fill="#7CA1FF"/>
<path d="M3.5 11.75C3.91421 11.75 4.25 11.4142 4.25 11C4.25 10.5858 3.91421 10.25 3.5 10.25C3.08579 10.25 2.75 10.5858 2.75 11C2.75 11.4142 3.08579 11.75 3.5 11.75Z" fill="#7CA1FF"/>
<path d="M15.5007 3H13.707C13.642 2.99978 13.5777 3.01236 13.5176 3.03702C13.4576 3.06169 13.403 3.09796 13.357 3.14375L11.5007 5L3.45695 6.3375C3.36589 6.35257 3.28078 6.39255 3.21104 6.45301C3.1413 6.51347 3.08966 6.59206 3.06184 6.68006C3.03401 6.76807 3.03109 6.86206 3.05339 6.95162C3.0757 7.04118 3.12236 7.12283 3.1882 7.1875L9.3132 13.3125C9.37788 13.3784 9.45952 13.425 9.54909 13.4473C9.63865 13.4696 9.73264 13.4667 9.82064 13.4389C9.90865 13.411 9.98723 13.3594 10.0477 13.2897C10.1082 13.2199 10.1481 13.1348 10.1632 13.0438L11.5007 5" stroke="#7CA1FF" stroke-linecap="round" stroke-linejoin="round"/>
</svg>
