<svg width="55" height="55" viewBox="0 0 55 55" fill="none" xmlns="http://www.w3.org/2000/svg">
<rect width="55" height="55" rx="9.16364" fill="#EEFAEE"/>
<path d="M28.7299 18.5096L30.4899 22.0296C30.7299 22.5196 31.3699 22.9896 31.9099 23.0796L35.0999 23.6096C37.1399 23.9496 37.6199 25.4296 36.1499 26.8896L33.6699 29.3696C33.2499 29.7896 33.0199 30.5997 33.1499 31.1797L33.8599 34.2497C34.4199 36.6797 33.1299 37.6197 30.9799 36.3497L27.9899 34.5797C27.4499 34.2597 26.5599 34.2597 26.0099 34.5797L23.0199 36.3497C20.8799 37.6197 19.5799 36.6697 20.1399 34.2497L20.8499 31.1797C20.9799 30.5997 20.7499 29.7896 20.3299 29.3696L17.8499 26.8896C16.3899 25.4296 16.8599 23.9496 18.8999 23.6096L22.0899 23.0796C22.6199 22.9896 23.2599 22.5196 23.4999 22.0296L25.2599 18.5096C26.2199 16.5996 27.7799 16.5996 28.7299 18.5096Z" stroke="#3EAF3F" stroke-width="1.71818" stroke-linecap="round" stroke-linejoin="round"/>
</svg>
