<svg width="36" height="36" viewBox="0 0 36 36" fill="none" xmlns="http://www.w3.org/2000/svg">
<path d="M18.4192 6.03906V9.26306L21.64 7.40306L22.44 8.78946L18.4192 11.1103V16.6527L23.2192 13.8815V9.23906H24.8192V12.9575L27.612 11.3463L28.412 12.7319L25.6192 14.3439L28.84 16.2031L28.04 17.5895L24.0192 15.2671L19.2192 18.0383L24.02 20.8103L28.04 18.4887L28.84 19.8743L25.6192 21.7335L28.412 23.3463L27.612 24.7319L24.8192 23.1199V26.8391H23.2192V22.1959L18.4192 19.4239V24.9671L22.44 27.2887L21.64 28.6743L18.4192 26.8143V30.0391H16.8192V26.8143L13.5984 28.6743L12.7984 27.2887L16.8192 24.9671V19.4239L12.0192 22.1951V26.8391H10.4192V23.1191L7.62724 24.7319L6.82724 23.3463L9.61844 21.7335L6.39844 19.8743L7.19844 18.4887L11.2184 20.8095L16.0184 18.0383L11.2192 15.2671L7.19844 17.5895L6.39844 16.2031L9.61924 14.3439L6.82724 12.7319L7.62724 11.3463L10.4192 12.9575V9.23906H12.0192V13.8815L16.8192 16.6527V11.1103L12.7984 8.78946L13.5984 7.40306L16.8192 9.26306V6.03906H18.4192Z" fill="#4F4F4F"/>
</svg>
