<svg width="25" height="25" viewBox="0 0 25 25" fill="none" xmlns="http://www.w3.org/2000/svg">
<path d="M21.2836 13.031L14.5336 19.781C14.3928 19.9218 14.202 20.0008 14.0029 20.0008C13.8039 20.0008 13.613 19.9218 13.4723 19.781C13.3316 19.6403 13.2525 19.4494 13.2525 19.2504C13.2525 19.0514 13.3316 18.8605 13.4723 18.7198L18.9426 13.2504H4.25293C4.05402 13.2504 3.86325 13.1714 3.7226 13.0307C3.58195 12.8901 3.50293 12.6993 3.50293 12.5004C3.50293 12.3015 3.58195 12.1107 3.7226 11.9701C3.86325 11.8294 4.05402 11.7504 4.25293 11.7504H18.9426L13.4723 6.28104C13.3316 6.14031 13.2525 5.94944 13.2525 5.75042C13.2525 5.55139 13.3316 5.36052 13.4723 5.21979C13.613 5.07906 13.8039 5 14.0029 5C14.202 5 14.3928 5.07906 14.5336 5.21979L21.2836 11.9698C21.3533 12.0394 21.4086 12.1222 21.4464 12.2132C21.4841 12.3043 21.5035 12.4019 21.5035 12.5004C21.5035 12.599 21.4841 12.6966 21.4464 12.7876C21.4086 12.8787 21.3533 12.9614 21.2836 13.031Z" fill="#467AFF"/>
</svg>
