<svg width="25" height="25" viewBox="0 0 25 25" fill="none" xmlns="http://www.w3.org/2000/svg">
<path d="M21.7108 13.1717L14.9608 19.9217C14.8201 20.0624 14.6292 20.1415 14.4302 20.1415C14.2312 20.1415 14.0403 20.0624 13.8996 19.9217C13.7588 19.7809 13.6798 19.5901 13.6798 19.391C13.6798 19.192 13.7588 19.0011 13.8996 18.8604L19.3699 13.391H4.68018C4.48126 13.391 4.2905 13.312 4.14985 13.1714C4.00919 13.0307 3.93018 12.84 3.93018 12.641C3.93018 12.4421 4.00919 12.2514 4.14985 12.1107C4.2905 11.9701 4.48126 11.891 4.68018 11.891H19.3699L13.8996 6.42167C13.7588 6.28094 13.6798 6.09006 13.6798 5.89104C13.6798 5.69202 13.7588 5.50115 13.8996 5.36042C14.0403 5.21969 14.2312 5.14063 14.4302 5.14062C14.6292 5.14062 14.8201 5.21969 14.9608 5.36042L21.7108 12.1104C21.7805 12.1801 21.8359 12.2628 21.8736 12.3538C21.9113 12.4449 21.9308 12.5425 21.9308 12.641C21.9308 12.7396 21.9113 12.8372 21.8736 12.9282C21.8359 13.0193 21.7805 13.102 21.7108 13.1717Z" fill="#FDFDFD"/>
</svg>
