<svg width="36" height="36" viewBox="0 0 36 36" fill="none" xmlns="http://www.w3.org/2000/svg">
<g clip-path="url(#clip0_2498_4296)">
<path d="M15.2031 20.6992L11.2031 29.4992" stroke="#4F4F4F" stroke-width="1.6" stroke-linejoin="round"/>
<path d="M21.6016 20.6992L25.6016 29.4992" stroke="#4F4F4F" stroke-width="1.6" stroke-linejoin="round"/>
<path d="M18.4043 29.4992V20.6992" stroke="#4F4F4F" stroke-width="1.6" stroke-linejoin="round"/>
<path d="M9.60156 12.6992C9.60156 17.5592 13.5416 21.4992 18.4016 21.4992C23.2616 21.4992 27.2016 17.5592 27.2016 12.6992" stroke="#4F4F4F" stroke-width="1.6" stroke-linejoin="round"/>
<path d="M24.0008 25.498H12.8008" stroke="#4F4F4F" stroke-width="1.6" stroke-linejoin="round"/>
<path d="M10.4031 15.0996H7.20312" stroke="#4F4F4F" stroke-width="1.6" stroke-linejoin="round"/>
<path d="M29.6043 15.0996H26.4043" stroke="#4F4F4F" stroke-width="1.6" stroke-linejoin="round"/>
<path d="M15.7648 11.8984C12.9224 11.8984 8.80078 11.8984 8.80078 11.8984" stroke="#4F4F4F" stroke-width="1.6" stroke-linejoin="round"/>
<path d="M28.0034 11.8984C28.0034 11.8984 25.849 11.8984 23.625 11.8984" stroke="#4F4F4F" stroke-width="1.6" stroke-linejoin="round"/>
<path d="M24.7929 -10.5034C24.7969 -6.63705 21.5977 -5.63705 21.5977 -1.70345C21.5977 2.23015 24.7969 3.23015 24.7929 7.09655C24.7889 10.963 21.5977 12.0302 21.5977 15.8966M20.7929 -10.5034C20.7969 -6.63705 17.5977 -5.63705 17.5977 -1.70345C17.5977 2.23015 20.7969 3.23015 20.7929 7.09655C20.7889 10.963 17.5977 12.0302 17.5977 15.8966M16.7929 -10.5034C16.7969 -6.63705 13.5977 -5.63705 13.5977 -1.70345C13.5977 2.23015 16.7969 3.23015 16.7929 7.09655C16.7889 10.963 13.5977 12.0302 13.5977 15.8966M24.7929 -28.1562C24.7969 -24.2898 21.5977 -23.2898 21.5977 -19.3562C21.5977 -15.4226 24.7969 -14.4226 24.7929 -10.5562V-10.5034C24.7969 -6.63705 21.5977 -5.63705 21.5977 -1.70345C21.5977 2.23015 24.7969 3.23015 24.7929 7.09655C24.7889 10.963 21.5977 12.0302 21.5977 15.8966M20.7929 -28.1562C20.7969 -24.2898 17.5977 -23.2898 17.5977 -19.3562C17.5977 -15.4226 20.7969 -14.4226 20.7929 -10.5562V-10.5034C20.7969 -6.63705 17.5977 -5.63705 17.5977 -1.70345C17.5977 2.23015 20.7969 3.23015 20.7929 7.09655C20.7889 10.963 17.5977 12.0302 17.5977 15.8966M16.7929 -28.1562C16.7969 -24.2898 13.5977 -23.2898 13.5977 -19.3562C13.5977 -15.4226 16.7969 -14.4226 16.7929 -10.5562V-10.5034C16.7969 -6.63705 13.5977 -5.63705 13.5977 -1.70345C13.5977 2.23015 16.7969 3.23015 16.7929 7.09655C16.7889 10.963 13.5977 12.0302 13.5977 15.8966" stroke="#4F4F4F" stroke-width="1.6" stroke-linejoin="round"/>
</g>
<defs>
<clipPath id="clip0_2498_4296">
<rect width="36" height="36" fill="white"/>
</clipPath>
</defs>
</svg>
