<svg width="36" height="36" viewBox="0 0 36 36" fill="none" xmlns="http://www.w3.org/2000/svg">
<path d="M12.0047 16.0023V28.0023H8.80469V10.4023H28.0047V28.0023H24.8047V16.0023C24.8047 15.5607 24.4463 15.2023 24.0047 15.2023H12.8047C12.3631 15.2023 12.0047 15.5607 12.0047 16.0023Z" stroke="#4F4F4F" stroke-width="1.6"/>
<path d="M6.40625 10.4023H30.4063" stroke="#4F4F4F" stroke-width="1.6" stroke-linejoin="round"/>
<path d="M6.40625 7.20312H30.4063" stroke="#4F4F4F" stroke-width="1.6" stroke-linejoin="round"/>
<path d="M18.4031 19.416C20.5367 21.2584 21.6031 23.0528 21.6031 24.7984C21.6031 26.5656 20.1703 27.9984 18.4031 27.9984C16.6359 27.9984 15.2031 26.544 15.2031 24.7984C15.2031 23.0528 16.2695 21.2584 18.4031 19.416Z" stroke="#4F4F4F" stroke-width="1.6"/>
<path d="M18.4016 24.6016C19.396 24.6016 20.2016 25.4072 20.2016 26.4016C20.2016 27.396 19.396 28.2016 18.4016 28.2016C17.4072 28.2016 16.6016 27.396 16.6016 26.4016C16.6016 25.4072 17.4072 24.6016 18.4016 24.6016Z" stroke="#4F4F4F" stroke-width="1.6" stroke-linejoin="round"/>
</svg>
