<svg width="36" height="36" viewBox="0 0 36 36" fill="none" xmlns="http://www.w3.org/2000/svg">
<path d="M19.2023 12.1992C21.8535 12.1992 24.0023 14.348 24.0023 16.9992V28.9992C24.0023 29.4408 23.6439 29.7992 23.2023 29.7992H15.2023C14.7607 29.7992 14.4023 29.4408 14.4023 28.9992V16.9992L14.4055 16.8192C14.4999 14.252 16.6119 12.1992 19.2023 12.1992Z" stroke="#4F4F4F" stroke-width="1.6"/>
<path d="M12.002 23.3965H15.202H12.002Z" stroke="#4F4F4F" stroke-width="1.6"/>
<path d="M19.2031 8.99805V12.198V8.99805Z" stroke="#4F4F4F" stroke-width="1.6"/>
<path d="M24.8031 8.99805H19.2031C14.7847 8.99805 11.2031 12.5796 11.2031 16.998V27.398" stroke="#4F4F4F" stroke-width="1.6"/>
<path d="M19.2031 8.99688L23.2031 5.79688L19.2031 8.99688Z" stroke="#4F4F4F" stroke-width="1.6"/>
<path d="M19.2035 10.5965C20.0875 10.5965 20.8035 9.88048 20.8035 8.99648C20.8035 8.11248 20.0875 7.39648 19.2035 7.39648C18.3195 7.39648 17.6035 8.11248 17.6035 8.99648C17.6035 9.88048 18.3195 10.5965 19.2035 10.5965Z" fill="white"/>
<path d="M19.2035 10.5965C20.0875 10.5965 20.8035 9.88048 20.8035 8.99648C20.8035 8.11248 20.0875 7.39648 19.2035 7.39648C18.3195 7.39648 17.6035 8.11248 17.6035 8.99648C17.6035 9.88048 18.3195 10.5965 19.2035 10.5965Z" stroke="#4F4F4F" stroke-width="1.6"/>
</svg>
