<svg width="36" height="36" viewBox="0 0 36 36" fill="none" xmlns="http://www.w3.org/2000/svg">
<path d="M26.3938 13.2012H27.9938C28.4354 13.2012 28.7938 13.5596 28.7938 14.0012V22.0012C28.7938 22.4428 28.4354 22.8012 27.9938 22.8012H26.3938C25.9521 22.8012 25.5938 22.4428 25.5938 22.0012V14.0012C25.5938 13.5596 25.9521 13.2012 26.3938 13.2012Z" stroke="#4F4F4F" stroke-width="1.6"/>
<path d="M23.1984 10H24.7984C25.24 10 25.5984 10.3584 25.5984 10.8V25.2C25.5984 25.6416 25.24 26 24.7984 26H23.1984C22.7568 26 22.3984 25.6416 22.3984 25.2V10.8C22.3984 10.3584 22.7568 10 23.1984 10Z" stroke="#4F4F4F" stroke-width="1.6"/>
<path d="M11.9953 10H13.5953C14.0369 10 14.3953 10.3584 14.3953 10.8V25.2C14.3953 25.6416 14.0369 26 13.5953 26H11.9953C11.5537 26 11.1953 25.6416 11.1953 25.2V10.8C11.1953 10.3584 11.5537 10 11.9953 10Z" stroke="#4F4F4F" stroke-width="1.6"/>
<path d="M8.79609 13.2012H10.3961C10.8377 13.2012 11.1961 13.5596 11.1961 14.0012V22.0012C11.1961 22.4428 10.8377 22.8012 10.3961 22.8012H8.79609C8.35449 22.8012 7.99609 22.4428 7.99609 22.0012V14.0012C7.99609 13.5596 8.35449 13.2012 8.79609 13.2012Z" stroke="#4F4F4F" stroke-width="1.6"/>
<path d="M28.793 18H31.193" stroke="#4F4F4F" stroke-width="1.6"/>
<path d="M14.3984 18H22.3984" stroke="#4F4F4F" stroke-width="1.6"/>
<path d="M5.59375 18H7.99375" stroke="#4F4F4F" stroke-width="1.6"/>
</svg>
