<svg width="36" height="36" viewBox="0 0 36 36" fill="none" xmlns="http://www.w3.org/2000/svg">
<g clip-path="url(#clip0_2498_4280)">
<path d="M29.6031 18.8011V20.4011H7.20312V12.4011C7.20312 12.2011 7.27832 12.0083 7.41113 11.8619L7.48313 11.7923L12.5663 7.4395C13.1303 6.9563 13.9463 6.9283 14.5399 7.3547L14.6487 7.4395L19.7239 11.7931C19.8759 11.9235 19.9727 12.1051 19.9967 12.3011L20.0031 12.4011V18.8011M13.6071 8.6547L8.80313 12.7683V18.8011H11.2031V14.8011C11.2031 14.3907 11.5119 14.0523 11.9095 14.0067L12.0031 14.0011H15.2031C15.6135 14.0011 15.9519 14.3091 15.9975 14.7067L16.0031 14.8011V18.8011H18.4031V12.7683L13.6071 8.6547ZM14.4031 15.6011H12.8031V18.8011H14.4031V15.6011Z" fill="#4F4F4F"/>
<path d="M24.8092 20.0284H26.4308L26.4212 6.79883H24.7988L24.8092 20.0284Z" fill="#4F4F4F"/>
<path d="M25.0527 10.6644C24.3151 11.3004 23.0807 11.7916 21.8479 11.8348L21.6191 11.8388V10.2388C23.4703 10.2388 24.4535 9.21643 24.7655 7.67003L24.7823 7.56683C24.7935 7.48043 24.7999 7.38763 24.8031 7.29803L24.7999 7.22363L24.8031 7.00603L24.8015 6.79883" fill="#4F4F4F"/>
<path d="M26.1216 10.6173C26.9048 11.2925 28.2456 11.8381 29.588 11.8381V10.2381L29.4 10.2357C27.6704 10.1685 26.7424 9.16374 26.4416 7.67014L26.4016 7.49414H25.7832L26.1216 10.6173Z" fill="#4F4F4F"/>
<path d="M26.1636 11.998L24.8012 12.0684L24.7772 12.2156C24.4908 13.2652 23.5324 14.0012 21.6172 14.0012V15.6012L21.862 15.598C23.0804 15.562 24.062 15.2572 24.802 14.758L25.8636 13.7284L26.1636 11.998Z" fill="#4F4F4F"/>
<path d="M26.402 14.7576C27.1908 15.2904 28.2548 15.6008 29.5868 15.6008V14.0008L29.378 13.9976C27.6012 13.9456 26.6956 13.2272 26.4196 12.2168L25.7004 12.3096L25.0332 13.8352L26.402 14.7576Z" fill="#4F4F4F"/>
<mask id="mask0_2498_4280" style="mask-type:alpha" maskUnits="userSpaceOnUse" x="-14" y="-15" width="65" height="65">
<path d="M50.4062 -14.3984H-13.5938V49.6016H50.4062V-14.3984Z" fill="#F2DDBB"/>
</mask>
<g mask="url(#mask0_2498_4280)">
<path d="M3.96798 22.2969C4.86318 22.2977 5.72878 22.6257 6.38078 23.2377C6.69278 23.5297 7.10158 23.7049 7.53598 23.7401L7.70078 23.7465V25.3465C6.80558 25.3465 5.93998 25.0177 5.28718 24.4057C4.93678 24.0769 4.46318 23.8969 3.96798 23.8969C3.47198 23.8969 2.99838 24.0769 2.64798 24.4057C1.99518 25.0177 1.12958 25.3465 0.234382 25.3465C-0.596819 25.3465 -1.40322 25.0633 -2.03602 24.5329L-2.17922 24.4057C-2.53042 24.0769 -3.00322 23.8969 -3.49922 23.8969C-3.99522 23.8969 -4.46802 24.0769 -4.81842 24.4057C-5.47122 25.0177 -6.33762 25.3465 -7.23282 25.3465C-8.12802 25.3465 -8.99362 25.0177 -9.64642 24.4057C-9.99682 24.0769 -10.4696 23.8969 -10.9656 23.8969C-11.4616 23.8969 -11.9344 24.0769 -12.2856 24.4057C-12.892 24.9737 -13.6816 25.2985 -14.508 25.3417L-14.6992 25.3465V23.7465C-14.2584 23.7465 -13.836 23.6041 -13.5008 23.3417L-13.3792 23.2377C-12.7264 22.6257 -11.8608 22.2977 -10.9656 22.2969C-10.0704 22.2977 -9.20482 22.6257 -8.55202 23.2377C-8.20162 23.5665 -7.72882 23.7465 -7.23282 23.7465C-6.73682 23.7465 -6.26402 23.5673 -5.91282 23.2377C-5.26002 22.6265 -4.39442 22.2977 -3.49922 22.2969C-2.60402 22.2977 -1.73842 22.6257 -1.08562 23.2377C-0.734418 23.5665 -0.261619 23.7465 0.234382 23.7465C0.730382 23.7465 1.20318 23.5665 1.55358 23.2377C2.20638 22.6257 3.07198 22.2977 3.96798 22.2969Z" fill="#4F4F4F"/>
<path d="M25.6692 22.2969C26.5644 22.2977 27.43 22.6257 28.082 23.2377C28.394 23.5297 28.8028 23.7049 29.2372 23.7401L29.402 23.7465V25.3465C28.5068 25.3465 27.6412 25.0177 26.9884 24.4057C26.638 24.0769 26.1644 23.8969 25.6692 23.8969C25.1732 23.8969 24.6996 24.0769 24.3492 24.4057C23.6964 25.0177 22.8308 25.3465 21.9356 25.3465C21.1044 25.3465 20.298 25.0633 19.6652 24.5329L19.522 24.4057C19.1708 24.0769 18.698 23.8969 18.202 23.8969C17.706 23.8969 17.2332 24.0769 16.8828 24.4057C16.23 25.0177 15.3636 25.3465 14.4684 25.3465C13.5732 25.3465 12.7076 25.0177 12.0548 24.4057C11.7044 24.0769 11.2316 23.8969 10.7356 23.8969C10.2396 23.8969 9.76675 24.0769 9.41555 24.4057C8.80915 24.9737 8.01955 25.2985 7.19315 25.3417L7.00195 25.3465V23.7465C7.44275 23.7465 7.86515 23.6041 8.20035 23.3417L8.32195 23.2377C8.97475 22.6257 9.84035 22.2977 10.7356 22.2969C11.6308 22.2977 12.4964 22.6257 13.1492 23.2377C13.4996 23.5665 13.9724 23.7465 14.4684 23.7465C14.9644 23.7465 15.4372 23.5673 15.7884 23.2377C16.4412 22.6265 17.3068 22.2977 18.202 22.2969C19.0972 22.2977 19.9628 22.6257 20.6156 23.2377C20.9668 23.5665 21.4396 23.7465 21.9356 23.7465C22.4316 23.7465 22.9044 23.5665 23.2548 23.2377C23.9076 22.6257 24.7732 22.2977 25.6692 22.2969Z" fill="#4F4F4F"/>
<path d="M47.6692 22.2969C48.5644 22.2977 49.43 22.6257 50.082 23.2377C50.394 23.5297 50.8028 23.7049 51.2372 23.7401L51.402 23.7465V25.3465C50.5068 25.3465 49.6412 25.0177 48.9884 24.4057C48.638 24.0769 48.1644 23.8969 47.6692 23.8969C47.1732 23.8969 46.6996 24.0769 46.3492 24.4057C45.6964 25.0177 44.8308 25.3465 43.9356 25.3465C43.1044 25.3465 42.298 25.0633 41.6652 24.5329L41.522 24.4057C41.1708 24.0769 40.698 23.8969 40.202 23.8969C39.706 23.8969 39.2332 24.0769 38.8828 24.4057C38.23 25.0177 37.3636 25.3465 36.4684 25.3465C35.5732 25.3465 34.7076 25.0177 34.0548 24.4057C33.7044 24.0769 33.2316 23.8969 32.7356 23.8969C32.2396 23.8969 31.7668 24.0769 31.4156 24.4057C30.8092 24.9737 30.0196 25.2985 29.1932 25.3417L29.002 25.3465V23.7465C29.4428 23.7465 29.8652 23.6041 30.2004 23.3417L30.322 23.2377C30.9748 22.6257 31.8404 22.2977 32.7356 22.2969C33.6308 22.2977 34.4964 22.6257 35.1492 23.2377C35.4996 23.5665 35.9724 23.7465 36.4684 23.7465C36.9644 23.7465 37.4372 23.5673 37.7884 23.2377C38.4412 22.6265 39.3068 22.2977 40.202 22.2969C41.0972 22.2977 41.9628 22.6257 42.6156 23.2377C42.9668 23.5665 43.4396 23.7465 43.9356 23.7465C44.4316 23.7465 44.9044 23.5665 45.2548 23.2377C45.9076 22.6257 46.7732 22.2977 47.6692 22.2969Z" fill="#4F4F4F"/>
</g>
<mask id="mask1_2498_4280" style="mask-type:alpha" maskUnits="userSpaceOnUse" x="-14" y="-15" width="65" height="65">
<path d="M50.4062 -14.3984H-13.5938V49.6016H50.4062V-14.3984Z" fill="#F2DDBB"/>
</mask>
<g mask="url(#mask1_2498_4280)">
<path d="M3.96798 26C4.86318 26.0008 5.72878 26.3288 6.38078 26.9408C6.69278 27.2328 7.10158 27.408 7.53598 27.4432L7.70078 27.4496V29.0496C6.80558 29.0496 5.93998 28.7208 5.28718 28.1088C4.93678 27.78 4.46318 27.6 3.96798 27.6C3.47198 27.6 2.99838 27.78 2.64798 28.1088C1.99518 28.7208 1.12958 29.0496 0.234382 29.0496C-0.596819 29.0496 -1.40322 28.7664 -2.03602 28.236L-2.17922 28.1088C-2.53042 27.78 -3.00322 27.6 -3.49922 27.6C-3.99522 27.6 -4.46802 27.78 -4.81842 28.1088C-5.47122 28.7208 -6.33762 29.0496 -7.23282 29.0496C-8.12802 29.0496 -8.99362 28.7208 -9.64642 28.1088C-9.99682 27.78 -10.4696 27.6 -10.9656 27.6C-11.4616 27.6 -11.9344 27.78 -12.2856 28.1088C-12.892 28.6768 -13.6816 29.0016 -14.508 29.0448L-14.6992 29.0496V27.4496C-14.2584 27.4496 -13.836 27.3072 -13.5008 27.0448L-13.3792 26.9408C-12.7264 26.3288 -11.8608 26.0008 -10.9656 26C-10.0704 26.0008 -9.20482 26.3288 -8.55202 26.9408C-8.20162 27.2696 -7.72882 27.4496 -7.23282 27.4496C-6.73682 27.4496 -6.26402 27.2704 -5.91282 26.9408C-5.26002 26.3296 -4.39442 26.0008 -3.49922 26C-2.60402 26.0008 -1.73842 26.3288 -1.08562 26.9408C-0.734418 27.2696 -0.261619 27.4496 0.234382 27.4496C0.730382 27.4496 1.20318 27.2696 1.55358 26.9408C2.20638 26.3288 3.07198 26.0008 3.96798 26Z" fill="#4F4F4F"/>
<path d="M25.6692 26C26.5644 26.0008 27.43 26.3288 28.082 26.9408C28.394 27.2328 28.8028 27.408 29.2372 27.4432L29.402 27.4496V29.0496C28.5068 29.0496 27.6412 28.7208 26.9884 28.1088C26.638 27.78 26.1644 27.6 25.6692 27.6C25.1732 27.6 24.6996 27.78 24.3492 28.1088C23.6964 28.7208 22.8308 29.0496 21.9356 29.0496C21.1044 29.0496 20.298 28.7664 19.6652 28.236L19.522 28.1088C19.1708 27.78 18.698 27.6 18.202 27.6C17.706 27.6 17.2332 27.78 16.8828 28.1088C16.23 28.7208 15.3636 29.0496 14.4684 29.0496C13.5732 29.0496 12.7076 28.7208 12.0548 28.1088C11.7044 27.78 11.2316 27.6 10.7356 27.6C10.2396 27.6 9.76675 27.78 9.41555 28.1088C8.80915 28.6768 8.01955 29.0016 7.19315 29.0448L7.00195 29.0496V27.4496C7.44275 27.4496 7.86515 27.3072 8.20035 27.0448L8.32195 26.9408C8.97475 26.3288 9.84035 26.0008 10.7356 26C11.6308 26.0008 12.4964 26.3288 13.1492 26.9408C13.4996 27.2696 13.9724 27.4496 14.4684 27.4496C14.9644 27.4496 15.4372 27.2704 15.7884 26.9408C16.4412 26.3296 17.3068 26.0008 18.202 26C19.0972 26.0008 19.9628 26.3288 20.6156 26.9408C20.9668 27.2696 21.4396 27.4496 21.9356 27.4496C22.4316 27.4496 22.9044 27.2696 23.2548 26.9408C23.9076 26.3288 24.7732 26.0008 25.6692 26Z" fill="#4F4F4F"/>
<path d="M47.6692 26C48.5644 26.0008 49.43 26.3288 50.082 26.9408C50.394 27.2328 50.8028 27.408 51.2372 27.4432L51.402 27.4496V29.0496C50.5068 29.0496 49.6412 28.7208 48.9884 28.1088C48.638 27.78 48.1644 27.6 47.6692 27.6C47.1732 27.6 46.6996 27.78 46.3492 28.1088C45.6964 28.7208 44.8308 29.0496 43.9356 29.0496C43.1044 29.0496 42.298 28.7664 41.6652 28.236L41.522 28.1088C41.1708 27.78 40.698 27.6 40.202 27.6C39.706 27.6 39.2332 27.78 38.8828 28.1088C38.23 28.7208 37.3636 29.0496 36.4684 29.0496C35.5732 29.0496 34.7076 28.7208 34.0548 28.1088C33.7044 27.78 33.2316 27.6 32.7356 27.6C32.2396 27.6 31.7668 27.78 31.4156 28.1088C30.8092 28.6768 30.0196 29.0016 29.1932 29.0448L29.002 29.0496V27.4496C29.4428 27.4496 29.8652 27.3072 30.2004 27.0448L30.322 26.9408C30.9748 26.3288 31.8404 26.0008 32.7356 26C33.6308 26.0008 34.4964 26.3288 35.1492 26.9408C35.4996 27.2696 35.9724 27.4496 36.4684 27.4496C36.9644 27.4496 37.4372 27.2704 37.7884 26.9408C38.4412 26.3296 39.3068 26.0008 40.202 26C41.0972 26.0008 41.9628 26.3288 42.6156 26.9408C42.9668 27.2696 43.4396 27.4496 43.9356 27.4496C44.4316 27.4496 44.9044 27.2696 45.2548 26.9408C45.9076 26.3288 46.7732 26.0008 47.6692 26Z" fill="#4F4F4F"/>
</g>
</g>
<defs>
<clipPath id="clip0_2498_4280">
<rect width="36" height="36" fill="white"/>
</clipPath>
</defs>
</svg>
