<svg width="36" height="36" viewBox="0 0 36 36" fill="none" xmlns="http://www.w3.org/2000/svg">
<path d="M25.6016 23.6992H28.8016V26.0992C28.8016 26.5408 28.4432 26.8992 28.0016 26.8992H26.4016C25.96 26.8992 25.6016 26.5408 25.6016 26.0992V23.6992Z" stroke="#4F4F4F" stroke-width="1.6"/>
<path d="M8.00195 23.6992H11.202V26.0992C11.202 26.5408 10.8436 26.8992 10.402 26.8992H8.80195C8.36035 26.8992 8.00195 26.5408 8.00195 26.0992V23.6992Z" stroke="#4F4F4F" stroke-width="1.6"/>
<path d="M11.202 15.6992H25.602C27.3692 15.6992 28.802 17.132 28.802 18.8992V22.8992C28.802 23.3408 28.4436 23.6992 28.002 23.6992H8.80195C8.36035 23.6992 8.00195 23.3408 8.00195 22.8992V18.8992C8.00195 17.132 9.43475 15.6992 11.202 15.6992Z" stroke="#4F4F4F" stroke-width="1.6"/>
<path d="M25.6008 18.8965C26.0424 18.8965 26.4008 19.2549 26.4008 19.6965C26.4008 20.1381 26.0424 20.4965 25.6008 20.4965C25.1592 20.4965 24.8008 20.1381 24.8008 19.6965C24.8008 19.2549 25.1592 18.8965 25.6008 18.8965Z" fill="#4F4F4F"/>
<path d="M11.2043 18.8965C11.6459 18.8965 12.0043 19.2549 12.0043 19.6965C12.0043 20.1381 11.6459 20.4965 11.2043 20.4965C10.7627 20.4965 10.4043 20.1381 10.4043 19.6965C10.4043 19.2549 10.7627 18.8965 11.2043 18.8965Z" fill="#4F4F4F"/>
<path d="M12.556 9.29688H24.2472C24.5808 9.29688 24.8792 9.50408 24.996 9.81607L27.2016 15.6969H9.60156L11.8072 9.81607C11.924 9.50408 12.2224 9.29688 12.556 9.29688Z" stroke="#4F4F4F" stroke-width="1.6"/>
<path d="M7.20312 13.2969H9.60313V14.8969H7.20312V13.2969Z" fill="#4F4F4F"/>
<path d="M27.2031 13.2969H29.6031V14.8969H27.2031V13.2969Z" fill="#4F4F4F"/>
<path d="M13.6035 19.6992H23.2035" stroke="#4F4F4F" stroke-width="1.6"/>
</svg>
