<svg width="20" height="20" viewBox="0 0 20 20" fill="none" xmlns="http://www.w3.org/2000/svg">
<path fill-rule="evenodd" clip-rule="evenodd" d="M20 10C20 15.5228 15.5228 20 10 20C4.47715 20 0 15.5228 0 10C0 4.47715 4.47715 0 10 0C15.5228 0 20 4.47715 20 10ZM15.2047 8.53804C16.0117 8.53804 16.6667 9.19301 16.6667 10C16.6667 10.5965 16.3041 11.1111 15.8246 11.3451C15.848 11.4854 15.8597 11.6258 15.8597 11.7778C15.8597 14.0234 13.2515 15.8363 10.0234 15.8363C6.79533 15.8363 4.18714 14.0234 4.18714 11.7778C4.18714 11.6258 4.19884 11.4737 4.22223 11.3334C3.70761 11.0994 3.35673 10.5965 3.35673 10C3.35673 9.19301 4.0117 8.53804 4.81872 8.53804C5.20468 8.53804 5.56726 8.70179 5.82457 8.9474C6.83041 8.21056 8.22223 7.75442 9.77778 7.70763L10.5146 4.22225C10.538 4.15208 10.5731 4.0936 10.6316 4.05851C10.6901 4.02342 10.7602 4.01173 10.8304 4.02342L13.2515 4.53804C13.4152 4.18717 13.7661 3.95325 14.1754 3.95325C14.7485 3.95325 15.2164 4.42108 15.2164 4.99418C15.2164 5.56728 14.7485 6.03512 14.1754 6.03512C13.614 6.03512 13.1579 5.59067 13.1345 5.04097L10.9708 4.58483L10.3041 7.70763C11.8246 7.76611 13.2047 8.23395 14.1988 8.9474C14.4561 8.69009 14.807 8.53804 15.2047 8.53804ZM7.70761 10C7.13451 10 6.66667 10.4679 6.66667 11.041C6.66667 11.6141 7.13451 12.0819 7.70761 12.0819C8.28071 12.0819 8.74854 11.6141 8.74854 11.041C8.74854 10.4679 8.28071 10 7.70761 10ZM10.0117 14.5497C10.4094 14.5497 11.7661 14.503 12.4795 13.7895C12.5848 13.6842 12.5848 13.5205 12.5029 13.4035C12.3977 13.2983 12.2222 13.2983 12.117 13.4035C11.6608 13.848 10.7135 14.0117 10.0234 14.0117C9.33334 14.0117 8.37427 13.848 7.92983 13.4035C7.82457 13.2983 7.64913 13.2983 7.54386 13.4035C7.4386 13.5088 7.4386 13.6842 7.54386 13.7895C8.24562 14.4913 9.61404 14.5497 10.0117 14.5497ZM11.2515 11.041C11.2515 11.6141 11.7193 12.0819 12.2924 12.0819C12.8655 12.0819 13.3333 11.6141 13.3333 11.041C13.3333 10.4679 12.8655 10 12.2924 10C11.7193 10 11.2515 10.4679 11.2515 11.041Z" fill="white"/>
</svg>
