<svg width="36" height="36" viewBox="0 0 36 36" fill="none" xmlns="http://www.w3.org/2000/svg">
<path d="M22.2188 8.80156V7.20156C22.2188 6.31756 21.5028 5.60156 20.6188 5.60156H11.8188C10.9347 5.60156 10.2188 6.31756 10.2188 7.20156V28.8016" stroke="#4F4F4F" stroke-width="1.6"/>
<path d="M27.018 8.80273H17.418V12.0027H27.018V8.80273Z" stroke="#4F4F4F" stroke-width="1.6" stroke-linejoin="round"/>
<path d="M15.0234 12.002H29.4234" stroke="#4F4F4F" stroke-width="1.6" stroke-linejoin="round"/>
<path d="M22.218 14.3984C21.7764 14.3984 21.418 14.7568 21.418 15.1984C21.418 15.64 21.7764 15.9984 22.218 15.9984C22.6596 15.9984 23.018 15.64 23.018 15.1984C23.018 14.7568 22.6596 14.3984 22.218 14.3984ZM18.218 14.3984C17.7764 14.3984 17.418 14.7568 17.418 15.1984C17.418 15.64 17.7764 15.9984 18.218 15.9984C18.6596 15.9984 19.018 15.64 19.018 15.1984C19.018 14.7568 18.6596 14.3984 18.218 14.3984ZM26.218 14.3984C25.7764 14.3984 25.418 14.7568 25.418 15.1984C25.418 15.64 25.7764 15.9984 26.218 15.9984C26.6596 15.9984 27.018 15.64 27.018 15.1984C27.018 14.7568 26.6596 14.3984 26.218 14.3984ZM22.218 17.5984C21.7764 17.5984 21.418 17.9568 21.418 18.3984C21.418 18.84 21.7764 19.1984 22.218 19.1984C22.6596 19.1984 23.018 18.84 23.018 18.3984C23.018 17.9568 22.6596 17.5984 22.218 17.5984ZM26.218 17.5984C25.7764 17.5984 25.418 17.9568 25.418 18.3984C25.418 18.84 25.7764 19.1984 26.218 19.1984C26.6596 19.1984 27.018 18.84 27.018 18.3984C27.018 17.9568 26.6596 17.5984 26.218 17.5984ZM18.218 17.5984C17.7764 17.5984 17.418 17.9568 17.418 18.3984C17.418 18.84 17.7764 19.1984 18.218 19.1984C18.6596 19.1984 19.018 18.84 19.018 18.3984C19.018 17.9568 18.6596 17.5984 18.218 17.5984ZM22.218 20.7984C21.7764 20.7984 21.418 21.1568 21.418 21.5984C21.418 22.04 21.7764 22.3984 22.218 22.3984C22.6596 22.3984 23.018 22.04 23.018 21.5984C23.018 21.1568 22.6596 20.7984 22.218 20.7984ZM26.218 20.7984C25.7764 20.7984 25.418 21.1568 25.418 21.5984C25.418 22.04 25.7764 22.3984 26.218 22.3984C26.6596 22.3984 27.018 22.04 27.018 21.5984C27.018 21.1568 26.6596 20.7984 26.218 20.7984ZM18.218 20.7984C17.7764 20.7984 17.418 21.1568 17.418 21.5984C17.418 22.04 17.7764 22.3984 18.218 22.3984C18.6596 22.3984 19.018 22.04 19.018 21.5984C19.018 21.1568 18.6596 20.7984 18.218 20.7984ZM22.218 23.9984C21.7764 23.9984 21.418 24.3568 21.418 24.7984C21.418 25.24 21.7764 25.5984 22.218 25.5984C22.6596 25.5984 23.018 25.24 23.018 24.7984C23.018 24.3568 22.6596 23.9984 22.218 23.9984ZM26.218 23.9984C25.7764 23.9984 25.418 24.3568 25.418 24.7984C25.418 25.24 25.7764 25.5984 26.218 25.5984C26.6596 25.5984 27.018 25.24 27.018 24.7984C27.018 24.3568 26.6596 23.9984 26.218 23.9984ZM18.218 23.9984C17.7764 23.9984 17.418 24.3568 17.418 24.7984C17.418 25.24 17.7764 25.5984 18.218 25.5984C18.6596 25.5984 19.018 25.24 19.018 24.7984C19.018 24.3568 18.6596 23.9984 18.218 23.9984ZM22.218 27.1984C21.7764 27.1984 21.418 27.5568 21.418 27.9984C21.418 28.44 21.7764 28.7984 22.218 28.7984C22.6596 28.7984 23.018 28.44 23.018 27.9984C23.018 27.5568 22.6596 27.1984 22.218 27.1984ZM26.218 27.1984C25.7764 27.1984 25.418 27.5568 25.418 27.9984C25.418 28.44 25.7764 28.7984 26.218 28.7984C26.6596 28.7984 27.018 28.44 27.018 27.9984C27.018 27.5568 26.6596 27.1984 26.218 27.1984ZM18.218 27.1984C17.7764 27.1984 17.418 27.5568 17.418 27.9984C17.418 28.44 17.7764 28.7984 18.218 28.7984C18.6596 28.7984 19.018 28.44 19.018 27.9984C19.018 27.5568 18.6596 27.1984 18.218 27.1984Z" fill="#4F4F4F"/>
<path d="M26.218 14.3984C25.7764 14.3984 25.418 14.7568 25.418 15.1984C25.418 15.64 25.7764 15.9984 26.218 15.9984C26.6596 15.9984 27.018 15.64 27.018 15.1984C27.018 14.7568 26.6596 14.3984 26.218 14.3984ZM22.218 14.3984C21.7764 14.3984 21.418 14.7568 21.418 15.1984C21.418 15.64 21.7764 15.9984 22.218 15.9984C22.6596 15.9984 23.018 15.64 23.018 15.1984C23.018 14.7568 22.6596 14.3984 22.218 14.3984ZM26.218 17.5984C25.7764 17.5984 25.418 17.9568 25.418 18.3984C25.418 18.84 25.7764 19.1984 26.218 19.1984C26.6596 19.1984 27.018 18.84 27.018 18.3984C27.018 17.9568 26.6596 17.5984 26.218 17.5984ZM22.218 17.5984C21.7764 17.5984 21.418 17.9568 21.418 18.3984C21.418 18.84 21.7764 19.1984 22.218 19.1984C22.6596 19.1984 23.018 18.84 23.018 18.3984C23.018 17.9568 22.6596 17.5984 22.218 17.5984ZM26.218 20.7984C25.7764 20.7984 25.418 21.1568 25.418 21.5984C25.418 22.04 25.7764 22.3984 26.218 22.3984C26.6596 22.3984 27.018 22.04 27.018 21.5984C27.018 21.1568 26.6596 20.7984 26.218 20.7984ZM22.218 20.7984C21.7764 20.7984 21.418 21.1568 21.418 21.5984C21.418 22.04 21.7764 22.3984 22.218 22.3984C22.6596 22.3984 23.018 22.04 23.018 21.5984C23.018 21.1568 22.6596 20.7984 22.218 20.7984ZM26.218 23.9984C25.7764 23.9984 25.418 24.3568 25.418 24.7984C25.418 25.24 25.7764 25.5984 26.218 25.5984C26.6596 25.5984 27.018 25.24 27.018 24.7984C27.018 24.3568 26.6596 23.9984 26.218 23.9984ZM22.218 23.9984C21.7764 23.9984 21.418 24.3568 21.418 24.7984C21.418 25.24 21.7764 25.5984 22.218 25.5984C22.6596 25.5984 23.018 25.24 23.018 24.7984C23.018 24.3568 22.6596 23.9984 22.218 23.9984ZM26.218 27.1984C25.7764 27.1984 25.418 27.5568 25.418 27.9984C25.418 28.44 25.7764 28.7984 26.218 28.7984C26.6596 28.7984 27.018 28.44 27.018 27.9984C27.018 27.5568 26.6596 27.1984 26.218 27.1984ZM22.218 27.1984C21.7764 27.1984 21.418 27.5568 21.418 27.9984C21.418 28.44 21.7764 28.7984 22.218 28.7984C22.6596 28.7984 23.018 28.44 23.018 27.9984C23.018 27.5568 22.6596 27.1984 22.218 27.1984Z" fill="#4F4F4F"/>
</svg>
