<svg width="37" height="37" viewBox="0 0 37 37" fill="none" xmlns="http://www.w3.org/2000/svg">
<path d="M23.4663 30.091L27.9134 31.71C29.3517 32.2334 30.929 31.6032 31.6304 30.2915L32.4516 30.591C31.607 32.2994 29.6278 33.1614 27.7858 32.5832L27.6121 32.5242L21.7475 30.3905L21.7397 30.387L21.7319 30.3835L7.63184 25.2515L7.92871 24.4355L23.4663 30.091Z" fill="#467AFF"/>
<path d="M23.4663 30.091L27.9134 31.71C29.3517 32.2334 30.929 31.6032 31.6304 30.2915L32.4516 30.591C31.607 32.2994 29.6278 33.1614 27.7858 32.5832L27.6121 32.5242L21.7475 30.3905L21.7397 30.387L21.7319 30.3835L7.63184 25.2515L7.92871 24.4355L23.4663 30.091Z" stroke="#467AFF" stroke-width="0.868067"/>
<path d="M22.2689 29.3056L26.0927 24.1388C26.459 23.6449 26.4252 22.9696 26.0337 22.5147L26.0241 22.5034L26.0146 22.4939L25.9373 22.4157L25.9278 22.4062L25.9182 22.3966L23.6013 20.3107C23.4581 20.1805 23.419 19.9747 23.4989 19.8037L23.538 19.7369L25.946 16.1222L26.9859 16.8158V16.8254L26.9894 16.8532L27.0172 17.0667L27.0181 17.078C27.0293 17.1466 27.0406 17.2117 27.0536 17.269C27.255 18.1422 27.7186 18.828 28.479 19.2907C29.1874 19.7204 30.1205 19.9374 31.2707 19.9799V20.848C28.6986 20.7551 27.1023 19.8202 26.433 18.1796L26.1239 17.4226L25.6699 18.1032L24.6699 19.6041L24.4616 19.9157L24.7402 20.1683L26.4989 21.7517C27.2932 22.4669 27.4434 23.6484 26.874 24.5355L26.7871 24.6605L22.9234 29.7926M18.5692 27.9818L21.3669 24.322L21.6187 23.993L21.3018 23.7274L18.6968 21.5286C18.2775 21.1744 18.0422 20.6726 18.0162 20.1535L18.9867 20.5181C19.0275 20.6006 19.0787 20.6796 19.1403 20.7508L19.1516 20.7638L19.1638 20.7751L19.2324 20.8419L19.2445 20.8549L19.2567 20.8645L22.4946 23.598C22.6551 23.7326 22.6933 23.96 22.5944 24.1388L22.5518 24.2022L19.1881 28.4601M16.0283 15.3809L16.3608 15.505L16.5483 15.2056L17.3096 13.9894C17.4493 13.7663 17.6039 13.5528 17.7731 13.3514C19.4216 11.3878 22.1239 10.8296 24.3592 11.8097L25.0823 12.1274L24.9633 11.3479C24.86 10.6734 24.9833 9.96156 25.3618 9.33048C26.2264 7.89209 28.0927 7.42681 29.5311 8.29054C30.9695 9.15513 31.4348 11.0206 30.5711 12.459C30.1717 13.1222 29.5615 13.5779 28.8766 13.7932L28.7368 13.8375L28.6526 13.9573L28.249 14.5276L27.5163 14.0397L28.1752 13.0554C28.8349 12.9911 29.4582 12.6248 29.8262 12.0119C30.4434 10.985 30.1118 9.65253 29.0841 9.03534C28.0571 8.41727 26.7238 8.74974 26.1066 9.77753C25.7403 10.386 25.7081 11.1022 25.9555 11.7125L25.0458 13.2264C23.0284 11.6387 20.1004 11.9303 18.4381 13.9104C18.3426 14.0241 18.2523 14.1413 18.1681 14.2628L18.162 14.2715L18.0509 14.4417L18.0457 14.4495L17.4719 15.3679L17.1898 15.8167L17.6872 16.0042" fill="#467AFF"/>
<path d="M22.2689 29.3056L26.0927 24.1388C26.459 23.6449 26.4252 22.9696 26.0337 22.5147L26.0241 22.5034L26.0146 22.4939L25.9373 22.4157L25.9278 22.4062L25.9182 22.3966L23.6013 20.3107C23.4581 20.1805 23.419 19.9747 23.4989 19.8037L23.538 19.7369L25.946 16.1222L26.9859 16.8158V16.8254L26.9894 16.8532L27.0172 17.0667L27.0181 17.078C27.0293 17.1466 27.0406 17.2117 27.0536 17.269C27.255 18.1422 27.7186 18.828 28.479 19.2907C29.1874 19.7204 30.1205 19.9374 31.2707 19.9799V20.848C28.6986 20.7551 27.1023 19.8202 26.433 18.1796L26.1239 17.4226L25.6699 18.1032L24.6699 19.6041L24.4616 19.9157L24.7402 20.1683L26.4989 21.7517C27.2932 22.4669 27.4434 23.6484 26.874 24.5355L26.7871 24.6605L22.9234 29.7926M18.5692 27.9818L21.3669 24.322L21.6187 23.993L21.3018 23.7274L18.6968 21.5286C18.2775 21.1744 18.0422 20.6726 18.0162 20.1535L18.9867 20.5181C19.0275 20.6006 19.0787 20.6796 19.1403 20.7508L19.1516 20.7638L19.1638 20.7751L19.2324 20.8419L19.2445 20.8549L19.2567 20.8645L22.4946 23.598C22.6551 23.7326 22.6933 23.96 22.5944 24.1388L22.5518 24.2022L19.1881 28.4601M16.0283 15.3809L16.3608 15.505L16.5483 15.2056L17.3096 13.9894C17.4493 13.7663 17.6039 13.5528 17.7731 13.3514C19.4216 11.3878 22.1239 10.8296 24.3592 11.8097L25.0823 12.1274L24.9633 11.3479C24.86 10.6734 24.9833 9.96156 25.3618 9.33048C26.2264 7.89209 28.0927 7.42681 29.5311 8.29054C30.9695 9.15513 31.4348 11.0206 30.5711 12.459C30.1717 13.1222 29.5615 13.5779 28.8766 13.7932L28.7368 13.8375L28.6526 13.9573L28.249 14.5276L27.5163 14.0397L28.1752 13.0554C28.8349 12.9911 29.4582 12.6248 29.8262 12.0119C30.4434 10.985 30.1118 9.65253 29.0841 9.03534C28.0571 8.41727 26.7238 8.74974 26.1066 9.77753C25.7403 10.386 25.7081 11.1022 25.9555 11.7125L25.0458 13.2264C23.0284 11.6387 20.1004 11.9303 18.4381 13.9104C18.3426 14.0241 18.2523 14.1413 18.1681 14.2628L18.162 14.2715L18.0509 14.4417L18.0457 14.4495L17.4719 15.3679L17.1898 15.8167L17.6872 16.0042" stroke="#467AFF" stroke-width="0.868067"/>
<path d="M8.16162 13.0996L22.0559 18.3115" stroke="#467AFF" stroke-width="1.73613"/>
</svg>
