<svg width="36" height="36" viewBox="0 0 36 36" fill="none" xmlns="http://www.w3.org/2000/svg">
<path d="M20.999 26.9054L25.0974 28.3974C26.423 28.8798 27.8766 28.299 28.5231 27.0902L29.2799 27.3662C28.5014 28.9406 26.6775 29.735 24.9798 29.2022L24.8198 29.1478L19.415 27.1814L19.4078 27.1782L19.4007 27.175L6.40625 22.4454L6.67985 21.6934L20.999 26.9054Z" fill="#4F4F4F"/>
<path d="M20.999 26.9054L25.0974 28.3974C26.423 28.8798 27.8766 28.299 28.5231 27.0902L29.2798 27.3662C28.5014 28.9406 26.6775 29.735 24.9798 29.2022L24.8198 29.1478L19.415 27.1814L19.4078 27.1782L19.4007 27.175L6.40625 22.4454L6.67985 21.6934L20.999 26.9054Z" stroke="#4F4F4F" stroke-width="0.8"/>
<path d="M19.8957 26.1813L23.4197 21.4197C23.7573 20.9645 23.7261 20.3421 23.3653 19.9229L23.3565 19.9125L23.3477 19.9037L23.2765 19.8317L23.2677 19.8229L23.2589 19.8141L21.1237 17.8917C20.9917 17.7717 20.9557 17.5821 21.0293 17.4245L21.0653 17.3629L23.2845 14.0317L24.2429 14.6709V14.6797L24.2461 14.7053L24.2717 14.9021L24.2725 14.9125C24.2829 14.9757 24.2933 15.0357 24.3053 15.0885C24.4909 15.8933 24.9181 16.5253 25.6189 16.9517C26.2717 17.3477 27.1317 17.5477 28.1917 17.5869V18.3869C25.8213 18.3013 24.3501 17.4397 23.7333 15.9277L23.4485 15.2301L23.0301 15.8573L22.1085 17.2405L21.9165 17.5277L22.1733 17.7605L23.7941 19.2197C24.5261 19.8789 24.6645 20.9677 24.1397 21.7853L24.0597 21.9005L20.4989 26.6301M16.4861 24.9613L19.0645 21.5885L19.2965 21.2853L19.0045 21.0405L16.6037 19.0141C16.2173 18.6877 16.0005 18.2253 15.9765 17.7469L16.8709 18.0829C16.9085 18.1589 16.9557 18.2317 17.0125 18.2973L17.0229 18.3093L17.0341 18.3197L17.0973 18.3813L17.1085 18.3933L17.1197 18.4021L20.1037 20.9213C20.2517 21.0453 20.2869 21.2549 20.1957 21.4197L20.1565 21.4781L17.0565 25.4021M14.1445 13.3485L14.4509 13.4629L14.6237 13.1869L15.3253 12.0661C15.4541 11.8605 15.5965 11.6637 15.7525 11.4781C17.2717 9.66851 19.7621 9.15411 21.8221 10.0573L22.4885 10.3501L22.3789 9.63171C22.2837 9.01011 22.3973 8.35411 22.7461 7.77251C23.5429 6.44691 25.2629 6.01811 26.5885 6.81411C27.9141 7.61091 28.3429 9.33011 27.5469 10.6557C27.1789 11.2669 26.6165 11.6869 25.9853 11.8853L25.8565 11.9261L25.7789 12.0365L25.4069 12.5621L24.7317 12.1125L25.3389 11.2053C25.9469 11.1461 26.5213 10.8085 26.8605 10.2437C27.4293 9.29731 27.1237 8.06931 26.1765 7.50051C25.2301 6.93091 24.0013 7.23731 23.4325 8.18451C23.0949 8.74531 23.0653 9.40531 23.2933 9.96771L22.4549 11.3629C20.5957 9.89971 17.8973 10.1685 16.3653 11.9933C16.2773 12.0981 16.1941 12.2061 16.1165 12.3181L16.1109 12.3261L16.0085 12.4829L16.0037 12.4901L15.4749 13.3365L15.2149 13.7501L15.6733 13.9229" fill="#4F4F4F"/>
<path d="M19.8957 26.1813L23.4197 21.4197C23.7573 20.9645 23.7261 20.3421 23.3653 19.9229L23.3565 19.9125L23.3477 19.9037L23.2765 19.8317L23.2677 19.8229L23.2589 19.8141L21.1237 17.8917C20.9917 17.7717 20.9557 17.5821 21.0293 17.4245L21.0653 17.3629L23.2845 14.0317L24.2429 14.6709V14.6797L24.2461 14.7053L24.2717 14.9021L24.2725 14.9125C24.2829 14.9757 24.2933 15.0357 24.3053 15.0885C24.4909 15.8933 24.9181 16.5253 25.6189 16.9517C26.2717 17.3477 27.1317 17.5477 28.1917 17.5869V18.3869C25.8213 18.3013 24.3501 17.4397 23.7333 15.9277L23.4485 15.2301L23.0301 15.8573L22.1085 17.2405L21.9165 17.5277L22.1733 17.7605L23.7941 19.2197C24.5261 19.8789 24.6645 20.9677 24.1397 21.7853L24.0597 21.9005L20.4989 26.6301M16.4861 24.9613L19.0645 21.5885L19.2965 21.2853L19.0045 21.0405L16.6037 19.0141C16.2173 18.6877 16.0005 18.2253 15.9765 17.7469L16.8709 18.0829C16.9085 18.1589 16.9557 18.2317 17.0125 18.2973L17.0229 18.3093L17.0341 18.3197L17.0973 18.3813L17.1085 18.3933L17.1197 18.4021L20.1037 20.9213C20.2517 21.0453 20.2869 21.2549 20.1957 21.4197L20.1565 21.4781L17.0565 25.4021M14.1445 13.3485L14.4509 13.4629L14.6237 13.1869L15.3253 12.0661C15.4541 11.8605 15.5965 11.6637 15.7525 11.4781C17.2717 9.66851 19.7621 9.15411 21.8221 10.0573L22.4885 10.3501L22.3789 9.63171C22.2837 9.01011 22.3973 8.35411 22.7461 7.77251C23.5429 6.44691 25.2629 6.01811 26.5885 6.81411C27.9141 7.61091 28.3429 9.33011 27.5469 10.6557C27.1789 11.2669 26.6165 11.6869 25.9853 11.8853L25.8565 11.9261L25.7789 12.0365L25.4069 12.5621L24.7317 12.1125L25.3389 11.2053C25.9469 11.1461 26.5213 10.8085 26.8605 10.2437C27.4293 9.29731 27.1237 8.06931 26.1765 7.50051C25.2301 6.93091 24.0013 7.23731 23.4325 8.18451C23.0949 8.74531 23.0653 9.40531 23.2933 9.96771L22.4549 11.3629C20.5957 9.89971 17.8973 10.1685 16.3653 11.9933C16.2773 12.0981 16.1941 12.2061 16.1165 12.3181L16.1109 12.3261L16.0085 12.4829L16.0037 12.4901L15.4749 13.3365L15.2149 13.7501L15.6733 13.9229" stroke="#4F4F4F" stroke-width="0.8"/>
<path d="M6.89453 11.2461L19.6993 16.0493" stroke="#4F4F4F" stroke-width="1.6"/>
</svg>
