<svg width="36" height="36" viewBox="0 0 36 36" fill="none" xmlns="http://www.w3.org/2000/svg">
<path d="M24.0031 11.7988C24.4447 11.7988 24.8031 12.1572 24.8031 12.5988C24.8031 13.0404 24.4447 13.3988 24.0031 13.3988C23.5615 13.3988 23.2031 13.0404 23.2031 12.5988C23.2031 12.1572 23.5615 11.7988 24.0031 11.7988Z" fill="#4F4F4F"/>
<path d="M18.4031 7C24.5887 7 29.6031 12.0144 29.6031 18.2C29.6031 24.3856 24.5887 29.4 18.4031 29.4C12.2175 29.4 7.20312 24.3856 7.20312 18.2C7.20312 12.0144 12.2175 7 18.4031 7Z" stroke="#4F4F4F" stroke-width="1.6"/>
<path d="M22.3143 18.998C21.9959 20.5604 20.7687 21.7948 19.2031 22.1132V23.7356C19.2743 23.7252 19.3455 23.7188 19.4159 23.706C21.7199 23.2852 23.5319 21.4508 23.9239 19.1412C23.9319 19.094 23.9295 19.0452 23.9359 18.998H22.3143Z" fill="#4F4F4F"/>
<path d="M23.9263 17.2633C23.5295 14.9065 21.6783 13.0617 19.3207 12.6729C19.2823 12.6665 19.2415 12.6697 19.2031 12.6641V14.2873C20.7719 14.6057 21.9967 15.8289 22.3151 17.3985H23.9375C23.9311 17.3537 23.9335 17.3073 23.9263 17.2633Z" fill="#4F4F4F"/>
<path d="M17.6042 22.1092C16.037 21.79 14.8106 20.5676 14.4922 18.998H12.873C12.8802 19.05 12.8778 19.1036 12.8866 19.1556C13.2906 21.498 15.137 23.3332 17.481 23.722C17.521 23.7284 17.5634 23.7268 17.6042 23.7324V22.1092Z" fill="#4F4F4F"/>
<path d="M14.4909 17.3979C14.8093 15.8339 16.0293 14.6019 17.6005 14.2827V12.6699C17.5269 12.6803 17.4493 12.6779 17.3765 12.6915C15.0421 13.1235 13.2301 14.9891 12.8661 17.3363C12.8629 17.3563 12.8645 17.3771 12.8613 17.3979H14.4909Z" fill="#4F4F4F"/>
<path d="M18.4008 16.5996C19.2848 16.5996 20.0008 17.3156 20.0008 18.1996C20.0008 19.0836 19.2848 19.7996 18.4008 19.7996C17.5168 19.7996 16.8008 19.0836 16.8008 18.1996C16.8008 17.3156 17.5168 16.5996 18.4008 16.5996Z" stroke="#4F4F4F" stroke-width="1.6"/>
</svg>
