<svg width="32" height="33" viewBox="0 0 32 33" fill="none" xmlns="http://www.w3.org/2000/svg">
<path d="M9.33203 28.0664L11.9987 22.7331M17.332 28.0664V22.7331L13.332 18.7331M13.332 18.7331L14.6654 10.7331M13.332 18.7331L10.8962 17.1091C10.4383 16.8039 10.086 16.3646 9.88766 15.8514C9.68929 15.3382 9.65454 14.7762 9.78817 14.2424L10.1615 12.7531C10.3057 12.1764 10.6383 11.6644 11.1068 11.2984C11.5752 10.9324 12.1524 10.7335 12.7468 10.7331H14.6654M14.6654 10.7331L18.6654 16.0664L22.6654 18.7331M14.6654 10.7331L19.9988 12.0664L23.9988 9.39974M22.6654 16.0664V28.0664M21.332 26.7331H23.9987M14.6654 5.39974C14.6654 5.75336 14.8058 6.0925 15.0559 6.34255C15.3059 6.5926 15.6451 6.73307 15.9987 6.73307C16.3523 6.73307 16.6915 6.5926 16.9415 6.34255C17.1916 6.0925 17.332 5.75336 17.332 5.39974C17.332 5.04612 17.1916 4.70698 16.9415 4.45693C16.6915 4.20688 16.3523 4.06641 15.9987 4.06641C15.6451 4.06641 15.3059 4.20688 15.0559 4.45693C14.8058 4.70698 14.6654 5.04612 14.6654 5.39974Z" stroke="#467AFF" stroke-width="2" stroke-linecap="round" stroke-linejoin="round"/>
</svg>
