<svg width="36" height="36" viewBox="0 0 36 36" fill="none" xmlns="http://www.w3.org/2000/svg">
<path d="M15.8908 25.2185H20.6356V26.8001H15.8908V25.2185ZM12.7276 26.8001V28.3817H23.7988V26.8001H22.2172V25.2185L23.0734 25.2154L23.2453 25.2111C25.3498 25.1215 25.2349 24.2559 23.1082 24.2559L13.1842 24.2632C11.0796 24.3529 11.1935 25.2185 13.3202 25.2185H14.3092V26.8001H12.7276Z" fill="#4F4F4F"/>
<path d="M10.3603 9.40191H26.1763L26.3154 9.40613C27.5607 9.47783 28.5487 10.5111 28.5487 11.7743V21.2639L28.5444 21.4031C28.4727 22.6483 27.4394 23.6363 26.1763 23.6363H10.3603L10.2211 23.6321C8.97582 23.5604 7.98785 22.5271 7.98785 21.2639V11.7743L7.99207 11.6351C8.06377 10.3899 9.09708 9.40191 10.3603 9.40191ZM22.2223 25.2179H26.1763L26.3481 25.2147C28.4527 25.1251 30.1303 23.3906 30.1303 21.2639V11.7743L30.1271 11.6024C30.0375 9.49786 28.303 7.82031 26.1763 7.82031H10.3603L10.1884 7.82348C8.0838 7.9131 6.40625 9.64759 6.40625 11.7743V21.2639L6.40941 21.4358C6.49904 23.5404 8.23353 25.2179 10.3603 25.2179H14.3143H22.2223Z" fill="#4F4F4F"/>
</svg>
