<svg width="36" height="36" viewBox="0 0 36 36" fill="none" xmlns="http://www.w3.org/2000/svg">
<g clip-path="url(#clip0_2498_4290)">
<path d="M44.6525 47.9016C44.6525 45.7224 44.6525 43.5336 44.6525 41.2848C44.6525 39.036 44.6525 36.7256 44.6525 34.3016C44.6525 31.8256 44.9821 28.7352 45.1469 26.0088C45.3117 23.2824 45.3109 20.9208 44.6525 19.9016C44.5997 19.8208 44.0613 19.8208 43.5045 19.8408C42.9485 19.8608 42.3741 19.9016 42.2525 19.9016C38.9645 19.9016 38.4133 18.5384 36.6525 17.5016C34.7877 16.4032 34.1325 15.8648 31.8525 15.9016C27.1477 15.9776 25.2645 19.9824 21.4525 19.9016C17.5781 19.82 14.5133 14.9872 11.0525 15.1016C7.91487 15.2056 4.95247 19.8832 1.45247 19.9016C-2.69313 19.924 -4.75713 15.0864 -8.14753 16.7016C-6.76593 27.4088 -10.1499 37.272 -8.14753 42.3016C-7.73153 43.3464 -5.58033 44.5464 -4.14753 45.5016C-2.12673 46.8496 -0.637928 47.908 1.45247 47.9016C5.14127 47.8904 7.49807 43.0552 11.8525 43.1016C14.9549 43.1344 18.6693 47.988 22.2525 47.9016C26.5421 47.7976 27.9749 42.9536 32.6525 43.1016C37.1845 43.2456 38.8293 49.4952 44.6525 47.9016Z" stroke="#4F4F4F" stroke-width="1.6"/>
<path d="M8.6457 7.90625H27.8457C28.2873 7.90625 28.6457 8.26465 28.6457 8.70625V27.9062C28.6457 28.3478 28.2873 28.7062 27.8457 28.7062H8.6457C8.2041 28.7062 7.8457 28.3478 7.8457 27.9062V8.70625C7.8457 8.26465 8.2041 7.90625 8.6457 7.90625Z" stroke="#4F4F4F" stroke-width="1.6"/>
<path d="M18.2496 11.9043C21.784 11.9043 24.6496 14.7699 24.6496 18.3043C24.6496 21.8387 21.784 24.7043 18.2496 24.7043C14.7152 24.7043 11.8496 21.8387 11.8496 18.3043C11.8496 14.7699 14.7152 11.9043 18.2496 11.9043Z" stroke="#4F4F4F" stroke-width="1.6"/>
<path d="M11.048 10.3027C11.4896 10.3027 11.848 10.6611 11.848 11.1027C11.848 11.5443 11.4896 11.9027 11.048 11.9027C10.6064 11.9027 10.248 11.5443 10.248 11.1027C10.248 10.6611 10.6064 10.3027 11.048 10.3027Z" fill="#4F4F4F"/>
</g>
<defs>
<clipPath id="clip0_2498_4290">
<rect width="36" height="36" fill="white"/>
</clipPath>
</defs>
</svg>
