<svg width="36" height="36" viewBox="0 0 36 36" fill="none" xmlns="http://www.w3.org/2000/svg">
<path d="M16.3071 24.123C16.3071 23.2325 17.0294 22.5102 17.9199 22.5102C18.8105 22.5102 19.5328 23.2325 19.5328 24.123C19.5328 25.0136 18.8105 25.7348 17.9199 25.7348C17.0294 25.7348 16.3071 25.0136 16.3071 24.123ZM21.1445 24.123C21.1445 22.3419 19.701 20.8984 17.9199 20.8984C16.1388 20.8984 14.6953 22.3419 14.6953 24.123C14.6953 25.9041 16.1388 27.3476 17.9199 27.3476C19.701 27.3476 21.1445 25.9041 21.1445 24.123Z" fill="#4F4F4F"/>
<path d="M24.4054 20.8595C23.2121 18.4885 20.7569 16.8633 17.9215 16.8633C15.0861 16.8633 12.6309 18.4896 11.4375 20.8595L12.6578 22.0798C13.4754 19.9712 15.5235 18.475 17.9215 18.475C20.3195 18.475 22.3675 19.9712 23.1851 22.0798L24.4054 20.8595Z" fill="#4F4F4F"/>
<path d="M27.3547 17.914C25.3358 14.852 21.8667 12.832 17.9254 12.832C13.9841 12.832 10.515 14.8532 8.49609 17.914L9.6648 19.0816C11.364 16.3011 14.4282 14.4449 17.9254 14.4449C21.4237 14.4449 24.4879 16.3011 26.1871 19.0827L27.3547 17.914Z" fill="#4F4F4F"/>
<path d="M30.2398 15.024C27.4504 11.252 22.9685 8.80469 17.9168 8.80469C12.8651 8.80469 8.38317 11.252 5.59375 15.024L6.749 16.177C9.23334 12.691 13.3092 10.4175 17.9168 10.4175C22.5243 10.4175 26.6013 12.691 29.0857 16.1781L30.2398 15.024Z" fill="#4F4F4F"/>
</svg>
